<svg xmlns="http://www.w3.org/2000/svg" version="1.1" xmlns:xlink="http://www.w3.org/1999/xlink" xmlns:svgjs="http://svgjs.dev/svgjs" width="1000" height="1000" viewBox="0 0 1000 1000"><rect width="1000" height="1000" fill="#ffffff"></rect><g transform="matrix(0.7,0,0,0.7,150.0000000000001,106.25)"><svg viewBox="0 0 320 360" data-background-color="#ffffff" preserveAspectRatio="xMidYMid meet" height="1125" width="1000" xmlns="http://www.w3.org/2000/svg" xmlns:xlink="http://www.w3.org/1999/xlink"><g id="tight-bounds" transform="matrix(1,0,0,1,0,0)"><svg viewBox="0 0 320 360" height="360" width="320"><g><svg></svg></g><g><svg viewBox="0 0 320 360" height="360" width="320"><g><path xmlns="http://www.w3.org/2000/svg" d="M20.961 227.22l3.726 4.658-1.863-6.056c-0.466-2.795-3.726 0.466-1.863 1.398M25.153 224.425c1.397 2.329 2.795 4.658 2.795 6.987 0 3.261 2.795 4.658 5.123 5.589-3.261-3.726-5.124-13.974-7.918-12.576M204.017 26.929c7.918 0 15.371-0.932 23.756 0.931 20.495 5.124 37.729 15.371 49.374 29.811l32.606 52.169c1.397 13.042 4.192 27.482 3.726 43.319 3.261 0 2.795-4.658 6.521-5.59-3.726 9.316-5.59 20.961-6.521 34.469-2.329-7.453 0-18.632 0.466-24.687-3.261 5.124-5.124 1.397-5.124-0.932 0.466-3.726-1.397-3.261-2.795-4.658-5.124-4.658-8.384-9.782-12.11-17.7 2.329-6.055 2.795-14.905-4.658-19.563-2.329-1.397-5.124-3.726-6.521-7.453-1.863-5.124-5.124-11.179-4.193-19.097 0.466-2.329-6.987 5.124-11.179 1.863-18.166-12.576-36.332-27.016-58.224-39.127-11.645 0-20.029-4.192-24.221-9.316-3.726-4.658-0.932-10.713 4.658-11.179 3.261 0 6.987-0.932 9.782 0.932 0.466-1.863 2.329-4.192 4.657-4.192M157.904 16.215l0.932 0.466c4.658 0.932 6.987 7.453 12.11 5.124 0 3.261 0.466 6.521-0.466 8.85-1.397 3.726-5.59 3.726-8.85 3.726-31.208-1.863-49.374 11.179-68.471 22.358-5.124 3.261-10.713 5.59-14.906 9.782-20.029 18.632-41.921 35.866-47.045 70.335l-4.192 38.195c-0.466 4.192-5.124 8.384-4.192 13.508l3.26 22.824c-3.261-3.261-5.124 0.932-4.192 2.795 0.466 1.397 2.329 6.055 5.124 1.863 3.726 6.987 7.453 20.495 12.576 26.55 15.837 18.632 36.332 35.4 53.101 52.169 4.192-0.932 7.453-0.932 8.384-3.727 1.397 2.795-1.397 5.59-3.726 6.056 7.453 4.658 15.837 8.85 27.016 9.781 14.44 0.932 27.948 3.261 40.524 6.522 6.521-1.863 13.042-2.795 20.029-3.261 2.329 0 3.726-3.726 6.521-4.658l0.466-4.658c2.795 4.192 2.329-1.397 0.466-4.192 3.261 2.795 4.192 5.124 5.589 6.987 0-1.397 3.726-6.521 3.727-0.466l0.931-6.055c1.397-0.932 1.863 5.124 3.261 0.931 1.397-4.192 4.192-0.932 6.987-2.329-0.932 1.863-0.466 5.59 2.794 3.261l3.727-3.261c2.329 5.59 6.055 3.261 7.918 2.329 20.495-13.042 40.99-28.413 60.553-43.784l-0.466 6.055 2.329-7.453c2.329 2.329 4.192 0.466 5.124-0.931 2.795-4.658 6.521-9.316 12.577-13.508-7.453 20.029-16.303 35.866-27.482 48.908l-4.658 5.59c0 3.261-0.932 7.453-4.658 7.918-1.863 0.466-5.59-0.932-8.384 1.863-1.397 1.863 3.261 5.59-0.466 2.795-3.261-2.329-6.521 0-10.248 0.932-2.795 0.932 1.863 3.726 2.795 5.589 0.932 1.863 1.863 3.726 1.398 6.056l-5.124-5.59c-6.055 3.261-9.782 9.316-14.906 13.974-2.329 1.863-1.397 5.124-1.397 7.918-3.261 0-6.987-0.932-8.85 0.932-1.397 1.863-0.932 4.658-0.932 7.453-4.658-0.466-5.124-7.453-9.315-6.056-4.192 0.932-8.85 1.397-12.577 3.727 2.795 5.59-4.658 2.329-3.726 3.26-6.987-4.192-13.042-7.453-20.495-4.658-15.837-5.124-35.4-2.795-49.84-0.931 0-2.329 0.466-4.658-0.466-5.124-0.932 2.329-3.726 1.397-3.26 1.397-8.85-6.055-17.7-9.782-27.016-14.905-8.384 0.932-16.303-3.261-18.632-5.59-6.521-6.055-13.974-2.795-20.029-4.192-13.042-3.261-17.7-16.769-19.098-26.084-0.932-4.658-4.658-6.521-6.055-6.056-6.055-19.563-15.371-37.263-22.824-55.429-1.863-4.658-1.397-9.316-1.397-14.44 2.329 0.932 4.658 0.466 4.192-2.794-2.329-15.371-7.918-27.016-13.974-38.195 3.261-15.837 3.726-34.469 11.179-48.443 6.521-12.576 18.632-19.098 27.016-29.811 2.795-3.726 2.795-8.85 5.59-12.11 9.316-9.316 18.632-19.098 28.879-27.482 4.658-3.726 10.247 0 17.234-1.397 2.329-8.384 11.645-15.837 20.495-13.508 3.726 0.932 11.179-8.85 13.508-9.782 3.726-1.397 1.863 3.726 1.863 6.987 8.85-6.987 20.961-10.713 32.14-14.906" fill="#ff0000" fill-rule="nonzero" stroke="none" stroke-width="1" stroke-linecap="butt" stroke-linejoin="miter" stroke-miterlimit="10" stroke-dasharray="" stroke-dashoffset="0" font-family="none" font-weight="none" font-size="none" text-anchor="none" style="mix-blend-mode: normal" data-fill-palette-color="tertiary"></path></g><g transform="matrix(1,0,0,1,64,133.89353593693338)"><svg viewBox="0 0 192 92.21292812613325" height="92.21292812613325" width="192"><g><svg viewBox="0 0 192 92.21292812613325" height="92.21292812613325" width="192"><g><svg viewBox="0 0 192 92.21292812613325" height="92.21292812613325" width="192"><g transform="matrix(1,0,0,1,0,55.73519852424125)"><svg viewBox="0 0 192 36.477729601892" height="36.477729601892" width="192"><g id="textblocktransform"><svg viewBox="0 0 192 36.477729601892" height="36.477729601892" width="192" id="textblock"><g><svg viewBox="0 0 192 36.477729601892" height="36.477729601892" width="192"><g transform="matrix(1,0,0,1,0,0)"><svg width="192" viewBox="2.8499999046325684 -38.79999923706055 253.67999267578125 48.19999694824219" height="36.477729601892" data-palette-color="#ff0000"><path d="M19.55 0.75L19.55 0.75Q15.65 0.75 12.55-0.45 9.45-1.65 7.3-3.98 5.15-6.3 4-9.65 2.85-13 2.85-17.35L2.85-17.35Q2.85-21.7 4.17-25.05 5.5-28.4 7.8-30.73 10.1-33.05 13.2-34.25 16.3-35.45 19.85-35.45L19.85-35.45Q22-35.45 23.75-35.13 25.5-34.8 26.8-34.4 28.1-34 28.95-33.55 29.8-33.1 30.15-32.9L30.15-32.9 28.3-27.75Q27.1-28.5 24.88-29.18 22.65-29.85 20.05-29.85L20.05-29.85Q17.8-29.85 15.85-29.08 13.9-28.3 12.48-26.75 11.05-25.2 10.25-22.85 9.45-20.5 9.45-17.4L9.45-17.4Q9.45-14.65 10.08-12.35 10.7-10.05 12-8.38 13.3-6.7 15.3-5.78 17.3-4.85 20.1-4.85L20.1-4.85Q23.45-4.85 25.55-5.53 27.65-6.2 28.8-6.8L28.8-6.8 30.5-1.65Q29.9-1.25 28.88-0.85 27.85-0.45 26.45-0.08 25.05 0.3 23.3 0.53 21.55 0.75 19.55 0.75ZM44.9-4.7L44.9-4.7Q48.3-4.7 49.85-5.85 51.4-7 51.4-9.1L51.4-9.1Q51.4-10.35 50.87-11.25 50.35-12.15 49.37-12.88 48.4-13.6 47-14.23 45.6-14.85 43.8-15.45L43.8-15.45Q42-16.1 40.32-16.88 38.65-17.65 37.37-18.8 36.1-19.95 35.32-21.55 34.55-23.15 34.55-25.4L34.55-25.4Q34.55-30.1 37.8-32.77 41.05-35.45 46.65-35.45L46.65-35.45Q49.9-35.45 52.42-34.73 54.95-34 56.4-33.15L56.4-33.15 54.45-28.05Q52.75-29 50.72-29.5 48.7-30 46.55-30L46.55-30Q44-30 42.57-28.95 41.15-27.9 41.15-26L41.15-26Q41.15-24.85 41.62-24.03 42.1-23.2 42.97-22.55 43.85-21.9 45.02-21.35 46.2-20.8 47.6-20.3L47.6-20.3Q50.05-19.4 51.97-18.48 53.9-17.55 55.22-16.28 56.55-15 57.25-13.28 57.95-11.55 57.95-9.1L57.95-9.1Q57.95-4.4 54.62-1.83 51.3 0.75 44.9 0.75L44.9 0.75Q42.75 0.75 40.97 0.48 39.2 0.2 37.82-0.2 36.45-0.6 35.45-1.03 34.45-1.45 33.85-1.8L33.85-1.8 35.7-6.95Q37.05-6.2 39.35-5.45 41.65-4.7 44.9-4.7ZM84.69-35L84.69-35Q92.19-35 96.17-32.25 100.14-29.5 100.14-23.85L100.14-23.85Q100.14-16.8 93.19-14.3L93.19-14.3Q94.14-13.15 95.34-11.5 96.54-9.85 97.79-7.93 99.04-6 100.19-3.98 101.34-1.95 102.24 0L102.24 0 95.19 0Q94.24-1.8 93.14-3.63 92.04-5.45 90.92-7.18 89.79-8.9 88.69-10.43 87.59-11.95 86.64-13.15L86.64-13.15Q85.94-13.1 85.44-13.1 84.94-13.1 84.49-13.1L84.49-13.1 81.44-13.1 81.44 0 75.14 0 75.14-34.15Q77.44-34.65 80.04-34.83 82.64-35 84.69-35ZM85.14-29.55L85.14-29.55Q83.14-29.55 81.44-29.4L81.44-29.4 81.44-18.2 84.19-18.2Q86.49-18.2 88.24-18.45 89.99-18.7 91.17-19.35 92.34-20 92.94-21.1 93.54-22.2 93.54-23.9L93.54-23.9Q93.54-25.5 92.94-26.6 92.34-27.7 91.22-28.35 90.09-29 88.54-29.28 86.99-29.55 85.14-29.55ZM105.39-12.95L105.39-12.95Q105.39-16.4 106.42-19 107.44-21.6 109.14-23.33 110.84-25.05 113.04-25.93 115.24-26.8 117.54-26.8L117.54-26.8Q122.94-26.8 125.97-23.45 128.99-20.1 128.99-13.45L128.99-13.45Q128.99-12.95 128.97-12.33 128.94-11.7 128.89-11.2L128.89-11.2 111.64-11.2Q111.89-8.05 113.87-6.33 115.84-4.6 119.59-4.6L119.59-4.6Q121.79-4.6 123.62-5 125.44-5.4 126.49-5.85L126.49-5.85 127.29-0.9Q126.79-0.65 125.92-0.38 125.04-0.1 123.92 0.13 122.79 0.35 121.49 0.5 120.19 0.65 118.84 0.65L118.84 0.65Q115.39 0.65 112.84-0.38 110.29-1.4 108.64-3.23 106.99-5.05 106.19-7.53 105.39-10 105.39-12.95ZM111.69-15.65L122.94-15.65Q122.94-16.9 122.59-18.03 122.24-19.15 121.57-19.98 120.89-20.8 119.92-21.28 118.94-21.75 117.59-21.75L117.59-21.75Q116.19-21.75 115.14-21.23 114.09-20.7 113.37-19.85 112.64-19 112.24-17.9 111.84-16.8 111.69-15.65L111.69-15.65ZM144.59-4.25L144.59-4.25Q147.39-4.25 148.84-4.55L148.84-4.55 148.84-11.25Q148.34-11.4 147.39-11.55 146.44-11.7 145.29-11.7L145.29-11.7Q144.29-11.7 143.26-11.55 142.24-11.4 141.41-11 140.59-10.6 140.09-9.88 139.59-9.15 139.59-8.05L139.59-8.05Q139.59-5.9 140.94-5.08 142.29-4.25 144.59-4.25ZM144.09-26.8L144.09-26.8Q147.09-26.8 149.14-26.05 151.19-25.3 152.41-23.95 153.64-22.6 154.16-20.68 154.69-18.75 154.69-16.45L154.69-16.45 154.69-0.6Q153.29-0.3 150.46 0.13 147.64 0.55 144.09 0.55L144.09 0.55Q141.74 0.55 139.79 0.1 137.84-0.35 136.46-1.35 135.09-2.35 134.31-3.95 133.54-5.55 133.54-7.9L133.54-7.9Q133.54-10.15 134.41-11.7 135.29-13.25 136.79-14.23 138.29-15.2 140.26-15.63 142.24-16.05 144.39-16.05L144.39-16.05Q145.39-16.05 146.49-15.93 147.59-15.8 148.84-15.5L148.84-15.5 148.84-16.5Q148.84-17.55 148.59-18.5 148.34-19.45 147.71-20.18 147.09-20.9 146.06-21.3 145.04-21.7 143.49-21.7L143.49-21.7Q141.39-21.7 139.64-21.4 137.89-21.1 136.79-20.7L136.79-20.7 136.04-25.6Q137.19-26 139.39-26.4 141.59-26.8 144.09-26.8ZM166.84-13.15L166.84-13.15Q166.84-9.15 168.74-6.88 170.64-4.6 173.99-4.6L173.99-4.6Q175.44-4.6 176.46-4.73 177.49-4.85 178.14-5L178.14-5 178.14-20Q177.34-20.55 176.01-21.03 174.69-21.5 173.19-21.5L173.19-21.5Q169.89-21.5 168.36-19.25 166.84-17 166.84-13.15ZM184.19-38.8L184.19-0.8Q182.39-0.25 179.66 0.2 176.94 0.65 173.94 0.65L173.94 0.65Q170.84 0.65 168.39-0.3 165.94-1.25 164.21-3.03 162.49-4.8 161.56-7.33 160.64-9.85 160.64-13L160.64-13Q160.64-16.1 161.41-18.63 162.19-21.15 163.69-22.95 165.19-24.75 167.34-25.73 169.49-26.7 172.29-26.7L172.29-26.7Q174.19-26.7 175.64-26.25 177.09-25.8 178.14-25.25L178.14-25.25 178.14-37.8 184.19-38.8ZM197.98-26.15L197.98 0 191.93 0 191.93-26.15 197.98-26.15ZM198.63-33.8L198.63-33.8Q198.63-32.1 197.53-31.1 196.43-30.1 194.93-30.1L194.93-30.1Q193.38-30.1 192.28-31.1 191.18-32.1 191.18-33.8L191.18-33.8Q191.18-35.55 192.28-36.55 193.38-37.55 194.93-37.55L194.93-37.55Q196.43-37.55 197.53-36.55 198.63-35.55 198.63-33.8ZM205.68 0L205.68-25.3Q207.43-25.8 210.23-26.25 213.03-26.7 216.43-26.7L216.43-26.7Q219.63-26.7 221.78-25.83 223.93-24.95 225.21-23.38 226.48-21.8 227.01-19.58 227.53-17.35 227.53-14.7L227.53-14.7 227.53 0 221.48 0 221.48-13.75Q221.48-15.85 221.21-17.32 220.93-18.8 220.31-19.73 219.68-20.65 218.61-21.08 217.53-21.5 215.98-21.5L215.98-21.5Q214.83-21.5 213.58-21.35 212.33-21.2 211.73-21.1L211.73-21.1 211.73 0 205.68 0ZM239.68-13.75L239.68-13.75Q239.68-9.9 241.35-8.13 243.03-6.35 245.68-6.35L245.68-6.35Q247.13-6.35 248.4-6.75 249.68-7.15 250.48-7.7L250.48-7.7 250.48-21.25Q249.83-21.4 248.88-21.53 247.93-21.65 246.48-21.65L246.48-21.65Q243.18-21.65 241.43-19.48 239.68-17.3 239.68-13.75ZM256.53-25.3L256.53-2.65Q256.53 3.6 253.35 6.5 250.18 9.4 243.63 9.4L243.63 9.4Q241.23 9.4 238.95 9 236.68 8.6 234.83 7.95L234.83 7.95 235.93 2.8Q237.48 3.45 239.45 3.85 241.43 4.25 243.73 4.25L243.73 4.25Q247.38 4.25 248.93 2.75 250.48 1.25 250.48-1.7L250.48-1.7 250.48-2.7Q249.58-2.25 248.1-1.8 246.63-1.35 244.73-1.35L244.73-1.35Q242.23-1.35 240.15-2.15 238.08-2.95 236.6-4.5 235.13-6.05 234.3-8.38 233.48-10.7 233.48-13.75L233.48-13.75Q233.48-16.6 234.35-19 235.23-21.4 236.9-23.1 238.58-24.8 240.98-25.75 243.38-26.7 246.43-26.7L246.43-26.7Q249.38-26.7 252.03-26.25 254.68-25.8 256.53-25.3L256.53-25.3Z" opacity="1" transform="matrix(1,0,0,1,0,0)" fill="#ff0000" class="wordmark-text-0" data-fill-palette-color="primary" id="text-0"></path></svg></g></svg></g></svg></g></svg></g><g transform="matrix(1,0,0,1,75.57487046108622,0)"><svg viewBox="0 0 40.850259077827545 50.41222230981476" height="50.41222230981476" width="40.850259077827545"><g><svg xmlns="http://www.w3.org/2000/svg" xmlns:xlink="http://www.w3.org/1999/xlink" version="1.1" x="0" y="0" viewBox="10.529999732971191 1.2899999618530273 78.94100189208984 97.41899871826172" enable-background="new 0 0 100 100" xml:space="preserve" height="50.41222230981476" width="40.850259077827545" class="icon-icon-0" data-fill-palette-color="accent" id="icon-0"><path d="M60.24 34.32v4.077c0 0.605-0.492 1.099-1.1 1.099h-3.152c-0.606 0-1.1-0.493-1.1-1.099V34.32H60.24z" fill="#ed2647" data-fill-palette-color="accent"></path><path d="M79.738 24.802h-2.304v-8.858h-4.062v8.858H48.092c-3.869 0-7.008 3.139-7.008 7.008v66.899h9.047V68.425h4.357v30.284h8.824V34.164h10.061v29.782h4.062V34.164h2.304c2.064 0 3.74-1.673 3.74-3.738v-1.883C83.479 26.478 81.803 24.802 79.738 24.802zM60.554 38.397c0 0.778-0.634 1.412-1.413 1.412h-3.152c-0.779 0-1.412-0.634-1.412-1.412v-4.391h1.493v-2.752h0.941v2.752h1.099v-2.397h0.941v2.397h1.503V38.397z" fill="#ed2647" data-fill-palette-color="accent"></path><circle cx="52.198" cy="10.522" r="9.2" fill="#ed2647" data-fill-palette-color="accent"></circle><path d="M72.422 15.875v5.962H61.43c0 0 0.259-2.98 2.577-2.98 2.317 0 4.926 0 4.926 0s2.414-0.172 2.414-2.981H72.422z" fill="#ed2647" data-fill-palette-color="accent"></path><path d="M78.3 15.875v5.962h11.171c0 0-0.26-2.98-2.577-2.98s-4.926 0-4.926 0-2.415-0.172-2.415-2.981H78.3z" fill="#ed2647" data-fill-palette-color="accent"></path><path d="M34.042 28.393H12.884c-1.296 0-2.354 1.055-2.354 2.354v32.412c0 1.296 1.058 2.354 2.354 2.354h21.158c1.299 0 2.354-1.059 2.354-2.354V30.746C36.396 29.447 35.341 28.393 34.042 28.393zM34.199 63.158c0 0.085-0.069 0.157-0.157 0.157H12.884c-0.085 0-0.157-0.072-0.157-0.157V30.746c0-0.088 0.072-0.157 0.157-0.157h21.158c0.088 0 0.157 0.069 0.157 0.157V63.158z" fill="#ed2647" data-fill-palette-color="accent"></path><rect x="25.201" y="33.853" width="1.453" height="2.903" fill="#ed2647" data-fill-palette-color="accent"></rect><path d="M19.097 32.711v5.288h12.525v-5.288H19.097zM27.282 37.384h-2.708v-4.158h2.708V37.384zM30.771 37.384h-2.705v-4.158h2.705V37.384z" fill="#ed2647" data-fill-palette-color="accent"></path><rect x="14.676" y="39.943" width="3.684" height="4.707" fill="#ed2647" data-fill-palette-color="accent"></rect><rect x="19.097" y="39.943" width="3.685" height="4.707" fill="#ed2647" data-fill-palette-color="accent"></rect><rect x="23.518" y="39.943" width="3.684" height="4.707" fill="#ed2647" data-fill-palette-color="accent"></rect><rect x="27.938" y="39.943" width="3.685" height="4.707" fill="#ed2647" data-fill-palette-color="accent"></rect><rect x="14.676" y="45.33" width="3.684" height="4.708" fill="#ed2647" data-fill-palette-color="accent"></rect><rect x="19.097" y="45.33" width="3.685" height="4.708" fill="#ed2647" data-fill-palette-color="accent"></rect><rect x="23.518" y="45.33" width="3.684" height="4.708" fill="#ed2647" data-fill-palette-color="accent"></rect><rect x="27.938" y="45.33" width="3.685" height="4.708" fill="#ed2647" data-fill-palette-color="accent"></rect><rect x="14.676" y="50.719" width="3.684" height="4.707" fill="#ed2647" data-fill-palette-color="accent"></rect><rect x="19.097" y="50.719" width="3.685" height="4.707" fill="#ed2647" data-fill-palette-color="accent"></rect><rect x="23.518" y="50.719" width="3.684" height="4.707" fill="#ed2647" data-fill-palette-color="accent"></rect><rect x="27.938" y="50.719" width="3.685" height="4.707" fill="#ed2647" data-fill-palette-color="accent"></rect><rect x="14.676" y="56.105" width="3.684" height="4.708" fill="#ed2647" data-fill-palette-color="accent"></rect><rect x="19.097" y="56.105" width="3.685" height="4.708" fill="#ed2647" data-fill-palette-color="accent"></rect><rect x="23.518" y="56.105" width="3.684" height="4.708" fill="#ed2647" data-fill-palette-color="accent"></rect><rect x="27.938" y="56.105" width="3.685" height="4.708" fill="#ed2647" data-fill-palette-color="accent"></rect><polyline points="30.144,33.853 28.694,33.853 28.694,36.756 30.144,36.756 " fill="#ed2647" data-fill-palette-color="accent"></polyline></svg></g></svg></g><g></g></svg></g></svg></g></svg></g></svg></g><defs></defs></svg><rect width="320" height="360" fill="none" stroke="none" visibility="hidden"></rect></g></svg></g></svg>