<?xml version="1.0" standalone="no"?>
<!DOCTYPE svg PUBLIC "-//W3C//DTD SVG 1.1//EN" "http://www.w3.org/Graphics/SVG/1.1/DTD/svg11.dtd" >
<svg xmlns="http://www.w3.org/2000/svg">
<metadata>
This is a custom SVG webfont generated by Font Squirrel.
</metadata>
<defs>
<font id="webfontkGEmnUOg" horiz-adv-x="1449" >
<font-face units-per-em="2048" ascent="1638" descent="-410" />
<missing-glyph horiz-adv-x="500" />
<glyph unicode="!" horiz-adv-x="903" d="M210 210l21 -126v21l21 -42l63 -21h21v-21l84 21l42 21l105 21l42 21l21 21l42 42l21 21l-42 210h21l-42 21l-126 21l-168 -21l-42 -42l-21 -21l-21 -42l-21 -21zM315 1995l21 -1260v21l42 -21h126l21 21l21 42l21 63v147l-21 42v42v672l-21 210l-21 42l-42 42h-84 l-42 -21z" />
<glyph unicode="&#x22;" horiz-adv-x="1008" d="M210 1974l21 -336v63l21 -105l21 -42l63 -21h63l42 21l-21 63l-21 42l-21 63l-21 105v105v63l-21 42h-84zM630 2016l21 -588h21v-21l105 21l21 21v378l-21 105l-21 42l-21 42h-105z" />
<glyph unicode="&#x201d;" horiz-adv-x="1008" d="M210 1974l21 -336v63l21 -105l21 -42l63 -21h63l42 21l-21 63l-21 42l-21 63l-21 105v105v63l-21 42h-84zM630 2016l21 -588h21v-21l105 21l21 21v378l-21 105l-21 42l-21 42h-105z" />
<glyph unicode="&#x201c;" horiz-adv-x="1008" d="M210 1974l21 -336v63l21 -105l21 -42l63 -21h63l42 21l-21 63l-21 42l-21 63l-21 105v105v63l-21 42h-84zM630 2016l21 -588h21v-21l105 21l21 21v378l-21 105l-21 42l-21 42h-105z" />
<glyph unicode="#" horiz-adv-x="2163" d="M210 1197l21 -63l399 42h21l147 -21l-42 -189l-21 -126l-21 -21l-147 -21l-42 -21l-84 -21l21 -63l252 21l-42 -231v-21l21 -84l147 42v21v63l21 21l21 210l147 42l105 21l84 21h42l-21 -357l21 -21l21 -42l84 21l21 21l21 84v105v42l21 189l63 21l42 21l63 21l63 21 l84 21l63 21l84 21l42 21l21 21v63l-21 42h-42l-105 -21l-63 -21l-63 -21l-84 -21l-63 -21l-63 -21h-21l21 210h21l210 42l-63 -21l147 42l42 21l21 21v84l-42 42h-42l-42 -21l-105 -21l-42 -21l-84 42l21 168v231l-42 -21l-42 -84l-21 -63l-21 -63l-21 -84l-21 -63 l-21 -105h-168h-147v105v273l-21 42h-84l-21 -126l-21 -168l-21 -147l-21 -21l-189 -21l-126 -21l-105 -21l-63 -21l-63 -21zM924 882h-21h21zM1008 903h-84l21 252l21 42l315 21l-42 -252l21 63l-42 -63l-63 -21l-63 -21l-63 -21h-21z" />
<glyph unicode="$" d="M210 1344l21 -147h21v-21h42l336 -21v-168l21 -210v-147h-63h-105l-63 21l-21 21l-42 63l-42 -21l-42 -63l-21 -42v-63l21 -42l42 -21l42 -21l84 -21h231h21l21 -84l21 -147l21 -42l63 -21l63 21l21 63l-21 105v147l42 21l42 21l42 21l42 21l42 21l21 21l42 42l21 42 l21 42v189l-21 84l-21 42l-21 42l-21 42l-42 42l-21 42l-42 21l-42 21l-21 21l-63 21l-84 21l-21 21l-21 252l105 42l63 21l105 21h84h105l21 21l-21 42l-21 42l-42 42h-231l-84 -21l-84 -21h-21l-42 231v42l-42 126l21 -21l-42 84l-63 -21v-21v-525l-42 -21l-42 -21 l-21 -21l-42 -21l-42 -42l-21 -21l-42 -42l-21 -21l-42 -42l-21 -42zM609 1491l-42 -168l-168 21l21 21l21 21l63 42l21 21l42 42h21h21zM819 1134l42 -21l42 -21l42 -21l21 -63l21 -42l21 -42v-147l-21 -21l-42 -21l-42 -21l-42 -21h-21l-42 336v42v63h21z" />
<glyph unicode="%" horiz-adv-x="1512" d="M210 1491l21 -189h21v-21l21 -21l63 -21h210l63 21l63 21l21 21l63 42l42 21l21 21l42 42v21v-63l-21 -63l-21 -42l-21 -63l-21 -42l-21 -63l-21 -63l-21 -42l-21 -63l-21 -63l-21 -42l-21 -63l-21 -42l-21 -63l-21 -63l-21 -42v-105l21 -42h84l42 21l21 63v21l21 42 l21 63l21 42l21 63l21 63l21 42l21 63l21 42l21 63l21 63l21 63l21 42l21 63l21 63l21 63l21 42l21 63l21 42l21 63l21 42l21 42l21 63l21 63l21 42l21 42l42 42v42l-21 42l-21 21l-84 -21l-42 -63l-21 -21l-42 -84l-21 -42l-21 -42l-21 -42l-21 -63l-21 -42l-21 63l-21 63 l-21 42l-42 21l-21 21l-42 21h-42l-294 -21h42l-126 -21l-42 -21l-42 -63v-42v-63l-21 -21zM462 1365h-42l-63 21l-21 21l21 84l21 42l42 42l21 21l63 42l21 21l189 21h42l21 -42v-42l-21 -42l-21 -42l-21 -21l-42 -42h-21l-42 -42h-21l-42 -21zM903 1470h-21h21zM924 1512 h-21h21zM924 756l21 -252h21v-21h21h147l42 21l21 21l42 42l21 42l21 42l21 84v105l-21 63l-21 42l-42 21l-42 21l-42 63h-21l-21 -21l-42 -42l-21 -21l-42 -63l-21 -42l-21 -63zM945 1596l-21 -21v21h21zM1092 630h-42l21 147v-21l21 84l63 -21l-42 -168l21 21z" />
<glyph unicode="&#x26;" horiz-adv-x="1680" d="M210 588l21 -168h21v-21h42l63 -21l84 -21l84 -21l105 -21h105l168 21l42 21l21 21l63 42l21 42l21 42l21 63l42 -21l42 -21l21 -42l105 -21l42 -21h105l21 21l-42 63v21h-21l-42 42l-42 21l-42 21l-42 21l-42 42l-21 21v21l21 147v105l-21 42h-84l-42 -21l-42 -84 l-21 -42l-21 42l-42 21l-42 42l-42 21l-21 42l-21 21l63 42l21 21l42 42l21 21l42 42l21 42l21 42l21 42l21 42l21 42l21 42l21 42l21 63l21 42v210l-21 42l-21 42l-42 21l-21 42l-63 21h-189l-84 -21l-84 -21l-42 -21l-42 -21l-42 -42l-21 -21l-42 -42l-21 -21l-21 -42 l-21 -42l-21 -63v-105l21 -105l21 -63l21 -42l21 -42l21 -42l42 -21l21 -63l21 -21l-42 -63l-21 -21l-42 -42l-21 -42l-21 -21l-42 -42l-21 -42l-21 -21l-42 -84l-21 -42l-21 -42l-21 -42zM693 966l21 -63l63 -21l21 -42l42 -21l21 -42l42 -21l21 -21l-42 -189l21 21 l-42 -42l-63 -21l-189 -21l-63 21l-105 42l-42 21v21l42 42v42l21 42l21 42l42 42l21 42l42 42l21 21l42 42l21 21h21zM735 1260h-42l-42 42l-21 42l-21 42l-21 21l-21 63l-21 63v105l21 63l42 42l21 21l63 42l42 21l84 21h168l21 -42v-105l-21 -63l-21 -42l-21 -42l-21 -42 l-21 -42l-21 -21l-42 -84l-21 -42l-21 -21l-42 -42h-21z" />
<glyph unicode="'" horiz-adv-x="693" d="M210 2079l21 -420v105l21 -210l21 -42l21 -42l21 -21l147 42l21 63l-21 21l-21 63l-21 105l-21 105l-21 105l-21 63l-21 42l-21 21h-105z" />
<glyph unicode="&#x2019;" horiz-adv-x="693" d="M210 2079l21 -420v105l21 -210l21 -42l21 -42l21 -21l147 42l21 63l-21 21l-21 63l-21 105l-21 105l-21 105l-21 63l-21 42l-21 21h-105z" />
<glyph unicode="&#x2018;" horiz-adv-x="693" d="M210 2079l21 -420v105l21 -210l21 -42l21 -42l21 -21l147 42l21 63l-21 21l-21 63l-21 105l-21 105l-21 105l-21 63l-21 42l-21 21h-105z" />
<glyph unicode="(" horiz-adv-x="1134" d="M210 1155l21 -315v63l21 -105l21 -42l21 -42l42 -21l21 -63l42 -21l21 -63l42 -21l21 -42l21 -42l21 -42l21 -42l21 -42l21 -63l21 -63l21 -42l42 -21l21 -42h63h147l21 21l-42 84h-21l-42 42l-42 21l-42 63v42l-42 84l-21 42l-21 42l-21 42l-21 21l-21 42l-42 21l-21 42 l-21 42l-42 21l-21 42l-21 42l-21 21l-21 63v252l21 105l21 63l21 63l21 84l21 63l21 42l21 63l21 42l21 42l21 42l42 42l21 21l21 21l84 42v21l-21 21v21h-21l-63 21l-84 -21l-42 -42l-21 -21l-42 -63l-21 -21l-42 -84l-21 -42l-21 -63l-21 -42l-21 -63l-21 -63l-21 -63 l-21 -63l-21 -84z" />
<glyph unicode=")" horiz-adv-x="1092" d="M210 1932l21 -126v21l21 -42l42 -21l21 -42l42 -21l21 -42l42 -21v-42l42 -21v-42l42 -21v-42l21 -42l21 -63l21 -63l21 -63l21 -63l21 -84l21 -84l21 -84l21 -105l21 -84v-210l-21 -63l-21 -42l-21 -42l-21 -42l-21 -21l-42 -42h-42l-63 -21l-21 -21l21 -105h21v-21 l105 21l63 21l21 21l42 42l21 21l42 42l21 42l21 42l21 42l21 63l21 63v189l-21 84l-21 105l-21 105l-21 84l-21 84l-21 63l-21 63l-21 63l-21 63l-21 63l-21 42l-21 42l-21 42l-42 63l-21 42l-42 42l-21 42l-42 21l-21 42l-42 21v21l42 42l-42 21l-63 21h-42l-42 -42z" />
<glyph unicode="*" horiz-adv-x="1344" d="M210 1029l21 -42l168 42l-21 -21l84 42h42l42 -21l-42 -147v-63l21 -42l21 -21l63 21l42 21l21 21l21 -63h42l21 21v42v126l42 -21l42 -21l21 -42h42l42 -21l21 -42l126 21l21 63l-21 42l-21 42l-42 21l-42 21l84 21l63 21v21v42l-21 42h-84l-63 -21h-105h84l-42 -21 l-147 42l21 42l42 42l21 42l21 42l42 42l21 42l21 42l42 42l-42 63l-63 -21l-42 -42l-21 -21l-42 -42l-21 -21l-42 -63h-21l-42 84l-21 42l-42 -21v-168v105l21 -21l-21 -63l-42 21l-21 42l-42 21l-21 42l-21 63l-21 42l-21 21l-63 -21l-21 -21v-21l21 -126l21 -42l21 -42 l21 -42l42 -21l21 -42v-42l-63 -21l-42 -21l-42 -21l-84 -21z" />
<glyph unicode="+" horiz-adv-x="1470" d="M210 1029l21 -126v21l42 -21h84l42 21h21l231 -21l21 -63l21 -84l21 -42l21 -42l63 -21l84 21l21 21v126l-21 42l-21 63v42l147 21l42 21l105 21l42 21l42 21l21 21v105l-21 42l-21 21h-147l-63 -21l-63 -21h-147l-42 105l-21 42l-21 63l-21 63l-21 42l-21 42l-21 42 l-21 42l-42 21l-21 21l-63 -21l-21 -63l21 -63l21 -84l21 -63l21 -84l21 -84v-84h-126l-105 -21l-63 -21l-42 -42z" />
<glyph unicode="," horiz-adv-x="819" d="M210 84l21 -105h21v-21l168 21l42 21l42 21l21 21l42 42l21 42l21 42v315l-21 126l-21 168l-42 42h-21l-42 -21l-42 -63v-231l21 -21l-42 -294l-21 -21h-21l-42 -21l-63 -21z" />
<glyph unicode="-" d="M210 1113l21 -105h21v-21h21l84 -21l168 -21l42 -21h63l63 21l105 21l63 21l63 21l84 21l210 21l21 42v84l-21 42l-42 21h-42l-210 -21h21l-84 -21l-63 -21l-84 -21l-84 -21h-42h-42l-294 21z" />
<glyph unicode="&#x2026;" d="M210 1113l21 -105h21v-21h21l84 -21l168 -21l42 -21h63l63 21l105 21l63 21l63 21l84 21l210 21l21 42v84l-21 42l-42 21h-42l-210 -21h21l-84 -21l-63 -21l-84 -21l-84 -21h-42h-42l-294 21z" />
<glyph unicode="&#x2013;" d="M210 1113l21 -105h21v-21h21l84 -21l168 -21l42 -21h63l63 21l105 21l63 21l63 21l84 21l210 21l21 42v84l-21 42l-42 21h-42l-210 -21h21l-84 -21l-63 -21l-84 -21l-84 -21h-42h-42l-294 21z" />
<glyph unicode="&#x2010;" d="M210 1113l21 -105h21v-21h21l84 -21l168 -21l42 -21h63l63 21l105 21l63 21l63 21l84 21l210 21l21 42v84l-21 42l-42 21h-42l-210 -21h21l-84 -21l-63 -21l-84 -21l-84 -21h-42h-42l-294 21z" />
<glyph unicode="." horiz-adv-x="756" d="M210 252l21 -168v21l21 -42l126 -21h105l42 21l21 42v147l-21 42l-21 21l-84 42h-63l-63 -21l-42 -42l-21 -21z" />
<glyph unicode="/" horiz-adv-x="1365" d="M210 336l21 -105h21v-21l105 21l21 42l21 42l42 42l21 63l42 42v42l21 42l21 42l21 42l21 42l21 42l21 42l21 63l21 42l21 63l21 42l21 42l21 42l21 63l21 42l21 42l21 42l21 42l42 42l21 63l42 42v21l42 42v21l21 42l42 42l21 42l42 42l21 21l-42 126h21l-42 21h-84 l-42 -42l-21 -21l-42 -63l-21 -21l-42 -63l-21 -21l-42 -84l-21 -21l-21 -42l-21 -21l-21 -42l-21 -42l-21 -42l-21 -42l-21 -42l-21 -42l-21 -42l-21 -63l-21 -42l-21 -42l-21 -63l-21 -42l-21 -63l-21 -42l-21 -42l-21 -63l-21 -42l-21 -42l-21 -63l-21 -42l-21 -42 l-21 -42l-21 -63z" />
<glyph unicode="0" horiz-adv-x="1890" d="M210 1323l21 -336v105l21 -189l21 -21l21 -63l42 -21v-42l21 -42l42 -21l21 -63l42 -21l21 -63l21 -42l42 -21l21 -63l42 -21l21 -42l42 -21l21 -42l63 -21l21 -42l63 -21h210l63 21l63 21l42 21l42 21l21 21l63 42l42 21l21 21l42 42l42 21l21 21l21 42l42 42v21l21 42 l21 42l21 63l21 84l21 231v252l-21 126l-21 63l-21 63l-21 42l-21 42l-21 42l-21 42l-21 42l-42 42l-21 42l-42 21l-21 42l-42 21l-21 21l-42 21l-21 42l-42 42l-21 42l-42 21l-21 21h-126l-42 -42l-21 -21h-42h-42l-126 -21l-42 -21l-42 -21l-42 -42l-42 -21l-42 -42 l-21 -21l-42 -63l-21 -21l-42 -42l-21 -21l-42 -63l-21 -42l-21 -21l-42 -84l-21 -84zM966 1848h105h21v-21l21 -42l63 -21l21 -42l63 -21l21 -42l42 -21v-42l21 -42l42 -21v-63l21 -42l21 -84v-462l-21 -84l-21 -63l-21 -42l-21 -21l-42 -63l-42 -21l-42 -42l-42 -21 l-42 -42h-21l-42 -21l-63 -21h-105l-42 21l-21 42l-42 21l-21 42l-42 21l-21 42l-42 42l-21 42l-21 42l-42 42l-21 42l-42 42l-21 42l-21 42l-21 42l-21 126v168l21 126l21 42l21 42l42 42l21 42l42 42l21 42l42 42l21 21l42 42l21 21l63 42h126h21z" />
<glyph unicode="1" horiz-adv-x="1680" d="M210 315l21 -63l21 -42l63 -21h84l336 -21l42 -21l42 -21h42l63 21l21 21l378 -21h-105h168l42 21l21 21l21 63v42l-21 63l-21 42l-42 21h-126h-63l-168 21l-21 84l-21 126l-21 105l-21 147l-21 231l-21 273l-21 168l-21 126l-21 105v147v84l-21 42l-21 42l-21 42h-126 l-42 -42l-21 -42v-63l21 -63l-42 -63l-42 -21l-42 -42h-21l-42 -21l-42 -21l-42 -42l-42 -21l-42 -63v-84l42 -21h84l21 21l84 42h21l21 21l84 42h42v-126l21 -168l21 -273l21 -231l21 -147l21 -105l21 -126v-84l-63 21l-84 21h-252l-63 -21l-42 -21l-42 -42z" />
<glyph unicode="2" horiz-adv-x="2121" d="M210 1617l21 -126v21l21 -42l63 -21l21 21l21 63l21 42l21 42l63 42l21 21l63 42l42 21l21 21l63 42l42 21l21 21l126 21h63l147 -21l42 -21l21 -42l42 -21l21 -42l42 -21v-42l21 -42l21 -63v-315l-21 -126l-21 -147l-21 -84l-21 -63l-21 -42l-21 -42l-21 -63l-21 -21 l-42 -63l-21 -21l-42 -21l-63 -21l-42 -21l-63 -21l-63 -21l-315 -21l-63 -21l-42 -42l-21 -42v-63l21 -63l42 -21l21 -42h84h63l105 21l105 21l105 21l231 21l189 21h336l147 -21h42l63 21l21 42v105l-21 42l-21 21l-42 21l-105 21l-378 21v21l21 42l21 42l21 42l21 42 l21 63l21 84l21 84l21 168l21 126v294l-21 105l-21 84l-21 42l-21 42l-42 42l-21 42l-21 42l-42 21l-21 42l-42 21l-42 21l-21 21l-42 21l-126 21h-315l-42 -21l-42 -21l-42 -21l-42 -42l-21 -21l-42 -21l-42 -42l-21 -21l-42 -42h-21l-42 -42l-21 -21l-42 -42l-21 -42z" />
<glyph unicode="3" horiz-adv-x="1680" d="M210 1974l21 -126h21v-21l168 21l63 21l84 21h399l105 -21l42 -21l42 -21l21 -42v-168l-21 -42l-21 -42l-21 -42l-21 -21l-42 -63l-21 -21l-42 -63l-42 -21l-42 -42l-21 -21l-42 -21l-42 -42h-21l-42 -21l-63 -21l-42 -42l-21 -21l-21 -42v-84l42 -21l21 -42h462l63 -21 l42 -21v-42v-105l-21 -84l-21 -42l-21 -42l-21 -42l-21 -21l-42 -63l-21 -21l-42 -42l-21 -21h-294l-105 21l-42 21l-42 21l-21 42l-21 21l-105 -21l-21 -21l-42 -84v-63l21 -42l42 -21l21 -42l42 -21l42 -21l42 -21l63 -21l168 -21h252l84 21l42 21l21 21l63 42l21 21 l42 42l21 21l21 42l42 42v21l42 42v21l21 42l21 42l21 63l21 84v231l-21 63l-21 42l-42 42l-21 42l-42 21l-42 21l-42 21l-84 21v21l42 42l21 21l42 42l21 42l42 42v21l21 42l21 42l21 42l21 42l21 84v168l-21 63l-21 42l-21 42l-21 42l-42 21l-42 42l-42 21l-42 21l-63 21 l-126 21h-378l-126 -21l-84 -21l-42 -21l-42 -21l-63 -21z" />
<glyph unicode="4" horiz-adv-x="1701" d="M210 1197l21 -189v21l42 -21h168h42l21 -21l147 -21l147 -21h231l84 21h42l21 -84l21 -189l21 -105l21 -210l21 -252l21 -42h42h126l21 21l21 63v21l-21 273l-21 147l-21 105l-21 105l-21 126l-21 147l-21 126l-21 189l-21 168l-21 399l-21 84l-42 42h-42l-42 -21 l-42 -63l-63 -21l-105 -21l-21 -21l-42 -42l-21 -21l-42 -21l-42 -42l-21 -21l-42 -42l-21 -21l-42 -42l-42 -21l-42 -42l-21 -21l-42 -42l-21 -21l-42 -42l-21 -21l-42 -63l-21 -21l-42 -63l-21 -42l-21 -42l-21 -21zM1008 1197h-273l-84 21l-84 21l-42 21v21l42 42l21 21 l42 42l21 21l42 42l21 21l42 42l21 21l42 42l21 21l42 42l42 21l21 21l42 42l21 21l63 42h21l-21 -84l21 -21l21 -420v168v-189l-42 -21z" />
<glyph unicode="5" horiz-adv-x="1638" d="M210 1785l21 -231l21 -21l21 -126l21 -42l21 -63l21 -42l21 -42l42 -21l21 -63l21 -42l21 -63l21 -42l21 -42l42 -21h147l21 21l42 42l21 21l42 42l42 21l21 21l63 42l21 21l84 21l42 -21l42 -21l21 -84l21 -126v-84l-21 -126l-21 -63l-21 -42l-21 -42l-21 -42h-21h-168 l-126 21l-84 21l-105 21h-126l-42 -42l-21 -21l21 -168v21l42 -21l42 -21l105 -21l105 -21l126 -21h315l42 21l42 21l21 21l42 42l21 42l42 42l21 63l21 63l21 84l21 126v189l-21 105l-21 63l-21 63l-21 42l-42 42l-42 42l-42 21l-21 21l-42 21l-105 21h-42l-84 -21l-63 -21 l-42 -42l-42 -21l-42 -42l-42 -21l-42 -42l-21 42l-42 21l-21 42l-21 42l-21 21l-21 63l-21 42l-21 63l-21 84v105l42 21l42 21l42 21l63 21l63 21l147 21h168l63 -21h21l42 21l21 42v84l-21 42l-42 42h-42l-168 21h63l-231 -21l-105 -21l-63 -21l-63 -21l-42 -21l-63 -21 l-42 -21l-42 -42l-21 -21l-42 -42z" />
<glyph unicode="6" horiz-adv-x="1512" d="M210 1134l21 -357v105l21 -147v21l21 -84l21 -42l42 -21l21 -42l42 -21l21 -42l42 -21l21 -42l63 -21l42 -21l42 -21l21 -42l63 -21l63 -21h147l42 21l42 21l21 21l42 21l21 21l42 42l21 21l42 42l21 42l42 42l21 126l21 21l-21 105l-21 84l-21 42l-21 42l-42 21l-21 42 l-42 21l-63 21l-84 21l-504 21v105l21 84l21 84l21 42l21 42l21 63l21 42l42 42l21 63l42 42v21l42 42l21 42l21 42v63l-21 42l-42 21h-84l-42 -42l-21 -42l-21 -21l-42 -63l-21 -21l-42 -63l-21 -21l-42 -84l-21 -42l-21 -42l-21 -42l-21 -42l-21 -63l-21 -84l-21 -105z M882 546h-84l-42 21l-42 42l-42 21l-42 21l-42 21l-21 42l-42 21l-21 42l-42 63v42h21l525 -21h-42l63 -21l21 -84l-42 -84l-21 -21l-21 -42l-42 -21z" />
<glyph unicode="7" horiz-adv-x="1827" d="M210 1764l21 -105l42 -21l63 -21h42h735l-21 -42l-21 -42l-21 -42l-21 -42l-21 -21l-21 -42l-21 -42l-21 -42l-21 -42l-21 -42l-21 -63l-21 -42l-21 -42l-21 -42l-21 -42l-21 -63l-21 -42l-21 -63l-21 -42l-21 -42l-21 -42l-21 -42l-21 -42l-21 -63l-21 -21l-42 -84 l-21 -84v-126l21 -42l63 -21l105 21l42 21l21 21l21 84l21 105l42 42l21 84l21 42l21 42l21 42l21 42l21 63l21 42l21 63l21 42l21 42l21 42l21 42l21 63l21 42l21 42l21 42l21 42l21 42l42 42l21 63l21 42l42 42v21l42 42v21l42 42v21l42 42l42 21l42 21l21 21l21 42v126 l-21 42l-42 21h-105l-42 -21l-42 -42l-42 -21l-84 -21l-189 -21l-609 -21h-84h-84l-42 -42z" />
<glyph unicode="8" horiz-adv-x="1575" d="M210 1239l21 -147v21l21 -42l42 -21l21 -42l105 -21l21 -21l273 -21l-42 -105l-21 -84l-21 -84l-21 -63v-315l21 -63l21 -42l21 -42l63 -21l21 -42l126 -21l105 21l42 21l42 21l21 21l42 42l21 21l42 42l21 21l42 42l21 21l21 42l21 42l21 42l21 84v126l-21 84l-21 42 l-21 42l-21 42l-21 42l-21 42l-42 21l-21 42l-42 21l-21 42l-42 21l21 84l21 42l21 42l21 42l21 42l21 42l21 42l21 42l42 42v21l42 42l-21 105l-21 42l-21 42l-21 42l-21 42l-21 21l-63 42h-126l-63 -21l-42 -21l-42 -21l-42 -21l-42 -42h-21l-42 -21l-42 -42l-42 -21 l-42 -42l-21 -21l-42 -42h-21l-42 -42l-21 -21l-42 -42l-21 -21l-42 -42l-21 -42l-21 -21l-42 -63l-21 -42zM819 1197h-105h-42l-189 42l21 42l42 42l21 21l42 42l21 21l42 42l21 21l42 42l42 21l21 21l42 42l42 21l21 21l84 42l42 21h42l-21 -42l-21 -21l-21 -42l-21 -42 l-21 -42l-21 -42l-21 -42l-21 -42l-21 -42l-21 -42l-21 -63zM924 336h-42l-21 84v147l21 84l21 63l21 63l21 63l42 21l21 -42l42 -21l21 -63l21 -42l21 -42v-84l-21 -42l-21 -42l-21 -21l-42 -42l-21 -21l-42 -42zM1092 1722h-21h21z" />
<glyph unicode="9" horiz-adv-x="1575" d="M210 1554l21 -168v42l21 -63l21 -42l63 -21l21 -42l63 -21l63 -21l63 -21l126 -21h105l105 21l63 21l42 21l21 21l42 -21l21 -567l21 -21l21 -420v168v-231v-21l21 -147v21l42 -21h147l21 21l21 42v210l-21 168l-21 210l-21 315l-21 336v357l21 42l21 63l21 63l21 63v126 l-21 42l-63 42h-21l-84 -21l-42 -42l-21 21l-63 21h-210l-63 -21l-42 -21l-42 -21l-42 -21l-42 -21l-42 -42l-42 -21l-42 -42l-42 -21l-42 -42l-42 -21l-42 -42l-21 -21l-21 -42l-21 -21l-21 -42zM819 1428h-231l-63 21l-42 21l-42 21v21l21 42l21 21l42 42l21 21l42 42 l42 21l21 21l42 21l21 21l42 21l21 21l42 21l42 21l63 21h126l21 -21l-21 -42l-21 -126l-21 -42l-21 -42l-21 -21l-42 -63l-21 -42l-42 -21z" />
<glyph unicode=":" horiz-adv-x="630" d="M210 1512l21 -84l21 -21l126 42v21v21l21 21l-42 63l-126 -21v-21zM294 882l21 -126h21v-21l63 21l21 21v84l-21 42h-84z" />
<glyph unicode=";" horiz-adv-x="714" d="M210 1638l21 -126h21l84 21l42 42l-21 63l-63 21h-84v-21zM315 567l21 -126h21l84 21l42 42v21l21 84v294h-84l-21 -63l-42 -231l-21 -42h-21z" />
<glyph unicode="&#x3c;" horiz-adv-x="1428" d="M210 1050l21 -63l21 -168v21l21 -42l105 -21l42 -21l21 -42h42l21 -42l63 -21l21 -42l63 -21l42 -21l42 -21l42 -21l21 -42l84 -21l42 -21l42 -21l42 -21l21 -42h63h42l42 21l42 21v21v126l-21 42l-63 21l-42 21l-42 21l-63 21l-42 21l-42 21l-63 42l-42 21l-42 21 l-21 21l-42 21l-42 21l-21 21l-42 21l-42 42l-42 21l-42 42v42l42 42l21 21l42 42l21 21l42 42l21 21l42 42v21l42 42l21 21l42 42l21 21l42 42v21l42 42l21 21l42 42l21 21v105l-21 21l-147 -21l-21 -21l-21 -21l-21 -21l-21 -21l-21 -21v-21l-42 -42l-21 -21l-42 -42 l-21 -21l-42 -42l-21 -21l-42 -42l-21 -21l-42 -42l-21 -21l-21 -42l-21 -21l-42 -21l-42 -42l-21 -21l-21 -21z" />
<glyph unicode="=" d="M210 651l21 -84h21v-21h21l63 -21h189l231 21l189 21h42h84l42 21v105l21 -42l-42 84l-147 21l-252 -21l-147 -21l-126 -21l-189 -21zM231 1092l21 -126h21l84 21h483h21l210 42l-63 -21l105 42h21l84 42l21 21v105l-21 42h-105l-63 -21l-42 -21l-84 -21l-525 -21 l-105 -21l-42 -42z" />
<glyph unicode="&#x3e;" horiz-adv-x="1659" d="M210 1659l21 -168h21v-21h21l42 -21l21 -42h42l42 -21l63 -21l63 -21l42 -21l42 -21l21 -42l84 -21l21 -42h42l42 -21l42 -21l42 -21l42 -21l42 -21l42 -21l63 -21l42 -21l-42 -42h-21l-42 -42l-42 -21l-42 -42l-42 -21l-42 -42l-21 -21l-42 -21l-42 -42l-42 -21l-42 -21 l-42 -42l-42 -21l-42 -42l-21 -21l-42 -42l-21 -21l-42 -42h-63l-42 -42l-21 -42v-42l21 -63l21 -21l147 42l-21 -21l42 42l21 21l42 42l42 21l21 21l42 42l21 21l63 42l21 21l63 42l21 21l63 42l21 21l63 42l21 21l63 42l21 21l63 42l21 21l84 42l84 21l21 21l42 42v21v84 l-21 42l-21 42l-42 21l-42 21l-63 21l-42 21l-63 21l-42 21l-42 21l-42 21l-63 21l-42 21l-42 21l-63 42l-42 21l-21 21l-42 21l-42 21l-42 21l-63 21l-63 21l-63 21l-42 21l-63 21l-21 21l-21 21h-21l-42 -21z" />
<glyph unicode="?" horiz-adv-x="1197" d="M210 1764l21 -168v21l21 -42l84 42l21 63v21l42 42v21l42 42l21 21l84 42l42 21l42 21l42 21h63l21 -63l42 -21l21 -126l-42 -126l-21 -42l-21 -63l-21 -42l-21 -42l-21 -21l-42 -42l-21 -21l-42 -42l-63 -21l-42 -21l-63 -21l-42 -42l-21 -21l-21 -126l21 -210v21 l21 -63l42 -21l21 -42l126 42l21 21v21l-21 42v21h-21l-21 42l-21 21v126l21 21l126 42l-21 -21l63 42l21 21l42 21l21 21l42 42l21 42l42 42l21 63l21 42l21 42l21 63l21 63l21 105v63l-21 84l-21 42l-21 42l-21 42l-21 42l-42 21l-21 42l-42 21h-126l-63 -21l-42 -21 l-42 -21l-42 -21l-42 -21l-42 -42h-21l-42 -42l-21 -21l-42 -63l-21 -21zM336 504l21 -126v21l21 -42l63 -21l42 21l21 42l42 42l-42 105v21h-21l-126 -21z" />
<glyph unicode="@" horiz-adv-x="2016" d="M210 1029l21 -147v21l42 -21h105l42 21l21 42l21 42l21 42l42 42l21 42l42 42l21 42l42 42l21 21l42 42l42 21l21 21l42 42l42 21l21 21l42 21l21 21l42 21l21 21l42 21l42 21l42 21l84 21h63l63 -21l42 -21l21 -42l42 -21l21 -42l42 -21l21 -63l42 -21v-147l21 63 l-42 -105l-21 -21l-42 -42l-21 -21l-42 -21h-21l-42 105l-21 42l-21 42l-42 84l-21 42l-42 21l-21 21h-42l-168 -21l-21 -21l-42 -42l-42 -21l-42 -42l-21 -21l-42 -42l-21 -42l-21 -42l-21 -42l-21 -63v-126l21 -42l21 -42l42 -21l21 -42l84 -21h189l42 21h21l63 -21h84 l63 21l42 21l42 21l42 21l42 21l21 21l63 42l42 21l21 21l42 42l21 21l21 42l42 42v21l21 63v168l-21 84l-21 42l-21 42l-21 42l-42 42l-21 42l-42 42l-21 42l-42 21l-21 21l-42 21l-21 21l-42 21l-63 21h-231l-84 -21l-42 -21l-42 -21l-42 -21l-42 -21l-42 -42l-42 -21 l-42 -21l-42 -21l-42 -42l-42 -21l-42 -42l-21 -21l-42 -42l-21 -21l-42 -42l-21 -21l-42 -42l-21 -21l-21 -42l-21 -21l-42 -63l-21 -21l-42 -63v-21zM210 651l21 -168v42l21 -84l21 -42l42 -21v-42l42 -21v-42l42 -21l21 -42l63 -21l42 -21l42 -21l42 -21l126 -21h210 l126 21l84 21l42 21l42 21l42 21l42 21l21 21l42 42l42 21v21l21 63v42l-42 42h-168l-42 -42l-63 -21l-42 -21l-42 -21l-105 -21h-231l-63 21l-42 21l-42 42l-42 42l-21 42l-21 21l-21 42l-21 42l-21 42l-21 42h-147zM1008 945h-63l-21 21l21 63l21 21l21 21v21l21 21l42 21 l21 21l42 42h21v-42v-21l-42 -147l-42 -21z" />
<glyph unicode="A" horiz-adv-x="2268" d="M210 231l21 -168h21v-21l105 21l21 21l42 42l21 42l21 42l21 42l42 42l21 42l21 42l21 42l21 42l42 42l21 63l21 42l21 42l21 42l21 63l21 42l21 42l21 63l21 42h63l63 -21l126 -21l84 -21l252 -21l63 -21l63 -21l21 -63l21 -63l21 -42l21 -42l21 -63l21 -42l21 -42 l21 -42l21 -42l21 -42l21 -63l21 -84l21 -42l63 -21h126l21 21l21 42v105l-21 63l-21 63l-21 42l-21 42l-21 42l-21 42l-21 63l-21 42l-21 42l-21 42l-21 63l-21 42l-21 42l-21 42l-21 42l-21 42l-21 63l-21 42l-21 42l-21 42l-21 63l-21 63l-21 63l-21 42l-21 63l-21 63 l-21 63l-21 63l-21 42l-21 63l-21 42l-21 42l-21 42l-21 42l-42 63l-21 42l-126 21h63l-105 -21l-21 -42l-21 -42l-21 -63l-21 -42l-21 -84l-21 -42l-21 -42l-21 -63l-21 -42l-21 -42l-21 -42l-21 -42l-21 -21l-42 -84l-21 -21l-21 -42l-21 -42l-21 -21l-21 -42l-21 -42 l-21 -42l-21 -63l-21 -42l-21 -42l-21 -42l-21 -63l-21 -42l-21 -42l-21 -63l-21 -21l-42 -84v-21l-42 -63l-21 -42l-21 -42l-21 -42l-21 -21l-21 -42l-21 -42l-21 -42zM1239 1659l21 -126l21 -63l21 -63l21 -63l21 -42l21 -63l21 -63l21 -63v-21l-462 42l21 63l42 42v21 l21 42l42 42v21l21 42l21 42l21 42l21 42l21 42l21 42l21 42h21z" />
<glyph unicode="B" horiz-adv-x="1596" d="M210 651l21 -504l21 -84l63 -21l63 -21l21 -42l84 -21l63 -21h189l126 21l63 21l63 21l63 21l21 21l63 42l21 21l42 42v21l42 42l21 21l21 42l21 63v231l-21 63l-21 42l-21 42l-21 42l-21 42l-42 42l-21 42l-21 42l-21 42l-21 21l63 42l21 21l42 21l21 21l42 21l21 42 l21 42l21 42l21 42l21 63l21 84v168l-21 84l-21 42l-21 42l-21 42l-21 42l-21 42l-42 63l-21 42l-21 21l-21 42l-42 21l-42 21l-84 42l-126 21l-84 21h-147l-63 -21l-42 -21l-42 -42l-21 -21l-42 -21l-21 42l-84 -21v-21l-21 -63l-21 -126l-21 -441zM483 819h189l84 21h84 l21 -42l21 -42l42 -21l21 -63l21 -42l21 -42l21 -42l21 -42v-105l-21 -21l-42 -63l-21 -21l-42 -21l-42 -21l-63 -21l-105 -21h-84l-42 21l-42 21l-21 63l-21 63l-21 63v378h21zM504 1932h84l42 21h84l42 -21l105 -21l84 -21l21 -42l42 -21v-42l42 -21v-42l21 -42l21 -42 l21 -42v-168l-21 -63l-21 -42l-21 -21l-42 -42h-21l-42 -21l-63 -21l-189 -21l-84 -21l-42 -21l-42 -42l-21 -42h-21l-21 861h21h21z" />
<glyph unicode="C" horiz-adv-x="1764" d="M210 1386l21 -693v84l21 -147l21 -21l21 -105l42 -21v-42l21 -42l42 -21l21 -42l42 -21l21 -42l42 -21l21 -42l63 -21l21 -42l63 -21l42 -21l42 -21l63 -21l105 -21h252l84 21l42 21l42 21l21 21l63 42l21 21l63 42v105l21 -42l-42 84l-21 42h-147l-42 -21l-42 -42h-21 l-42 -42l-21 -21l-315 42l21 -21l-63 42l-42 21l-42 42l-42 21l-21 42l-42 21l-21 42l-42 21l-21 42l-21 42l-21 42l-21 63l-21 126v441l21 105l21 84l21 42l21 42l21 42l42 42l42 21l21 21l42 21l63 21l42 21l42 21l42 21l63 21l63 21h126l42 -21l21 -42l42 -21l21 -63 l21 -42l42 -21l21 -42l105 21l21 21v147l-21 63l-21 42l-21 42l-42 42l-42 42l-42 21l-42 42l-84 21h-42l-231 -21h63l-105 -21l-63 -21l-42 -21l-63 -21l-42 -21l-42 -21l-42 -21l-42 -21l-42 -42l-42 -21l-42 -42l-21 -21l-42 -63l-21 -21l-42 -105l-21 -42l-21 -84z" />
<glyph unicode="D" horiz-adv-x="1638" d="M210 1953l21 -483v126l21 -378l21 -525l21 -21l-21 -504l21 -21l21 -126h21v-21h21l42 -21l42 -21h315l21 21l63 42l42 21l21 21l63 21l21 21l105 42l21 21l63 42l21 21l42 42l21 21l42 42v21l21 42l21 42l21 42l21 63l21 63l21 105v378l-21 147l-21 105l-21 84l-21 42 l-21 42l-21 42l-21 42l-21 42l-21 42l-42 42l-21 42l-42 21l-21 42l-42 21l-21 42l-42 21l-21 42l-42 21l-21 21l-42 21l-42 42l-42 21l-63 21h-294l-42 -21l-42 -42h-84l-42 -42zM672 1869l42 -21l42 -21l21 -42l42 -21l21 -42l42 -21l21 -42l42 -21l21 -42l42 -21l21 -42 l21 -42l21 -42l21 -42l21 -42l21 -63l21 -84l21 -147v-315l-21 -84l-21 -63l-21 -63l-21 -42l-21 -42l-21 -21l-42 -42l-42 -21l-42 -42h-63l-42 -21l-42 -21l-42 -42l-42 -21l-42 -42l-147 21l21 126l-21 336l-21 294l-21 483l-21 126l-21 126v168h231h21z" />
<glyph unicode="E" horiz-adv-x="1659" d="M210 1974l21 -672v126l21 -294l21 -21l21 -483v210l21 -336v105l21 -231l21 -21l21 -273h21v-21l21 -21l63 -21l63 21h21l21 -21l126 -21h63h147l273 21l84 21l42 21v21l21 42v21l-21 63l-21 42l-42 21h-84l-252 -21h-147l-105 21l-63 21l-21 84l-21 126l-21 126v231h126 h168l84 21l105 21h105h42l63 21l21 21v126l-21 42l-21 21l-63 21h-63l-147 -21l-63 -21l-84 -21h-189l-84 21l-21 21l-21 189l-21 105l-21 210v21l21 105l147 21l84 21h252h105h42l168 42l-42 -21l105 42l42 21l21 21l42 21v84l21 -21l-42 42l-63 42h-21l-105 -21l-147 -21 h-84l-147 21h-105l-126 -21l-84 -21h-84l-63 21h-84l-42 -21zM546 882h-21h21z" />
<glyph unicode="F" horiz-adv-x="1701" d="M210 1827v-63v-84l21 -903v315l21 -672l21 -21l21 -420v168l21 -189h21v-21h42h63l42 21l21 21v294l-21 210v210l147 21l210 21l126 21l231 21l63 21l21 21v105l-21 42l-42 21h-126l-63 -21l-189 -21l-105 -21l-147 -21h-126l-21 294v105l21 63l-21 252l21 42l21 63 l63 21l21 21l168 42l105 21l126 21l126 21h231v-42l147 42l21 21v21l-21 42v21l-21 21l-42 42l-42 21l-63 21h-189l-168 -21l-189 -21l-126 -21l-84 -21l-63 -21l-189 -21l-42 -42l-21 -21z" />
<glyph unicode="G" horiz-adv-x="2037" d="M210 1113l21 -483v42l21 -105l21 -42l21 -63l21 -42l21 -42l21 -42l21 -42l21 -42l21 -42l21 -42l21 -42l42 -21l21 -63l42 -21l21 -42h42l42 -21l42 -21h357l63 21l42 21l42 21l42 21l42 21l21 21l63 42l42 21l21 21l63 42l21 21l63 42l21 21l42 42l21 21l63 42l21 21 l21 42l21 42v126l-21 42l-21 42l-42 21l-21 21l-63 21l-147 21l-441 21h-84l-84 -21l-42 -42l-21 -42v-63l21 -42l21 -42h42l504 -21l84 -21l-42 -42l-42 -21l-42 -42l-42 -21l-42 -42l-42 -21l-42 -42h-21l-42 -21l-42 -42h-21l-63 -21h-231l-42 21l-21 42l-42 21l-21 42 l-21 42l-21 42l-21 42l-21 42l-21 42l-21 42l-21 63l-21 42l-21 63v336l21 84l21 63l21 42l21 63l42 42l21 63l21 42l42 42l21 42l42 42l42 21l21 21l63 42l42 21l42 21l63 21l63 21h126l63 -21l63 -21l42 -21l42 -21l21 -42l63 -21l21 -42l42 -21l21 -42l21 -42l21 -42 l21 -105l21 -105l21 -63l21 -42l63 -21h42l21 21v336l-21 105l-21 42l-21 42l-21 42l-42 42l-21 42l-42 21l-21 42l-42 21l-42 21l-21 21l-42 21l-21 21l-63 21l-42 21l-63 21l-147 21h-42l-126 -21l-42 -21l-63 -21l-63 -21l-42 -21l-42 -21l-42 -42l-42 -21l-42 -42 l-42 -21l-42 -42l-21 -42l-21 -21l-42 -63l-21 -21l-42 -84l-21 -42l-21 -42l-21 -42l-21 -42l-21 -63l-21 -63z" />
<glyph unicode="H" horiz-adv-x="1869" d="M210 1281l21 -504l21 -21l21 -672l42 -21h126l21 21l21 42v126l-21 441l-21 210v21l273 -21h21v-21h168h21h21h210h21l189 21l21 -357v147l21 -273l21 -21v-357v231l21 -21l-21 -252l21 -21l21 -63h63h42l42 21l21 21l21 63v252l-21 147l-21 126l-21 147l-21 735l-21 189 l-21 189l-21 126l-21 42l-42 42h-21l-42 -21l-42 -84v-399l21 -21l-42 -378l-63 21l-147 -21l-567 -21h-42h-42h-21v840v-441l21 42l-42 441h21l-42 21h-84l-42 -42l-21 -84l-21 -315z" />
<glyph unicode="I" horiz-adv-x="1869" d="M210 1869l21 -126v21l42 -21l168 -21l21 -42l63 -21h105h210h42l21 -525l21 -21v-546l21 294l-42 -525l21 210l-42 -210l-252 -21l-42 -21l-21 -21l-21 -63l21 -105h21v-21h21l126 -21h42h252h105h42h357l21 21l42 42v63l-21 63l-21 42l-147 21l-252 21v168l21 42 l-42 651l21 -231l-42 546v42l21 105h21l63 21l336 21h21h21l63 42v21v84l-21 42l-42 42l-147 21h-42l-672 21l-42 -21l-189 -21l-189 -21l-84 -21z" />
<glyph unicode="J" horiz-adv-x="1890" d="M210 1953l21 -126h21h21v-21h42h168l84 21l63 21h84l126 -21l168 -21l-21 -63v-105l21 -42l21 -819v-441v294l21 -21l-42 -336l21 42l-42 -84l-21 -42l-21 -21h-189l-42 21l-42 21l-21 42l-21 63l-21 189l-21 105l-21 42l-42 21h-84l-42 -42l-21 -63v-21l21 -126l21 -147 l21 -84l21 -42l21 -42l21 -42l42 -21l21 -42h42l42 -21l84 -21h294l21 21l42 42l21 21l42 42l21 42l21 42l21 63l21 84v315v357l-42 483v42l-21 315l420 42l-63 -21l84 42l21 21l21 21v21l21 21l-42 63l-21 42h-126l-357 -21l-63 -21l-483 21l-42 -21l-63 -21l-84 -21h-84 h-63z" />
<glyph unicode="K" horiz-adv-x="2247" d="M210 2079l21 -252l21 -462v168l21 -336l21 -21l21 -315l21 -21v-441l21 273l-42 -336l21 42l-21 -126l21 -147h21v-21l126 21l42 21l21 126v21l21 63l21 63v126l-21 168l-21 168v21l105 42l42 21l21 21l42 -21l21 -42l105 -21l21 -63l42 -21l21 -42l42 -21l42 -21l21 -42 l42 -21l21 -42l63 -21l21 -42l63 -21l42 -21l21 -42l63 -21l42 -21l21 -42l84 -21l42 -21l42 -21l42 -21l42 -21l21 -42l63 -21l21 -63l84 -21l84 21l21 21l21 42v42l-21 63l-21 42l-42 21l-21 42l-42 21l-21 21l-42 21l-21 21l-42 21l-42 21l-42 21l-42 21l-42 21l-42 21 l-21 21l-42 21l-42 21l-21 21l-42 21l-21 21l-42 21l-21 21l-42 21l-21 42l-42 21l-42 21l-21 42l-42 21l-21 42l-42 21l-21 42l-42 21v42l63 42l42 21l21 21l63 42l42 21l21 21l63 42l42 21l42 21l21 21l63 42l21 21l63 42l21 21l63 42l21 21l63 42l21 21l84 42l21 21 l42 42v105l21 -42l-42 84l-42 42h-84l-42 -21l-42 -42l-42 -21l-42 -21l-42 -42l-42 -21l-42 -42l-42 -21l-42 -42l-42 -21l-42 -42l-42 -21l-42 -42l-63 -21l-42 -42h-21l-42 -42l-42 -21l-42 -21l-42 -42h-21l-42 -42l-42 -21l-42 -42h-21l-42 -42h-21l-42 -42h-21 l-42 -42h-21l-21 63l-21 147l-21 168l-21 147l-21 336l-21 63l-21 42l-42 21h-84z" />
<glyph unicode="L" horiz-adv-x="1638" d="M210 2037v-189l21 84l-21 -252l21 -525l21 -21l21 -273l21 -21l21 -336l21 -189l21 -63l21 -126l42 -21l21 -42h42h399l189 21l294 21l42 21l21 63v21l-21 63l-21 42l-42 21l-483 -21h168h-441l231 -21l-231 42l-21 252l-21 42l-21 168l-21 126l-21 126l-21 168l-21 231 l-21 462l-21 105l-21 42l-42 42h-63l-42 -21z" />
<glyph unicode="M" horiz-adv-x="2499" d="M210 588l21 -441h21l84 21l63 42l21 168l21 189l21 210l21 294l21 567l42 -21v-42l42 -21l21 -42l42 -21v-42l42 -21l21 -42l21 -42l42 -21l21 -42l42 -21l21 -42l42 -21l21 -42l42 -21l21 -42l42 -21l21 -42l42 -21l21 -63l42 -21l21 -42l42 -21l21 -63l21 -42l63 -21 h105l42 21v21l21 42l21 63l21 63l42 42l21 42l21 42l21 42l21 42l42 42l21 42l21 42l42 42l21 63l42 42l21 21l21 42l42 42h21l21 -525v210l21 -420l21 -21v-630l21 378l-21 -441l21 -21l21 -42l63 -21h63l42 21l21 21l21 42l21 63v357l-21 189l-21 231l-21 210l-21 378 l-21 378l-21 63l-21 42l-21 42h-126l-42 -21l-42 -63l-21 -42l-21 -42l-21 -21l-21 -42l-21 -21l-42 -42l-21 -21l-42 -42l-21 -42l-21 -21l-42 -42l-21 -42l-21 -21l-21 -42l-21 -21l-21 -42l-21 -42l-21 -21l-42 -63l-21 -42l-21 -42l-21 -21l-42 -63l-21 42l-42 21 l-21 42l-42 21l-21 42l-42 21l-21 42l-42 21l-21 42l-42 21l-21 42l-42 42l-21 42l-42 21l-21 42l-21 42l-42 21l-21 42l-42 42l-21 42l-42 21l-21 42l-42 42l-21 42l-42 42l-21 42l-42 21l-21 21l-126 -21l-21 -21l-21 -21v-21l-42 -168v-21l-42 -1218l21 294z" />
<glyph unicode="N" horiz-adv-x="2268" d="M210 2037l21 -483v105l21 -231l21 -21v-714l21 378l-21 -672l21 -21l21 -294v63l21 -105l42 -21h105l21 42l21 777l21 42l-42 567v42h21l21 -42l42 -21l21 -63l42 -21l21 -42l42 -21l21 -42l42 -21l21 -42l63 -21l21 -42l42 -21v-42l42 -21l21 -42l42 -21l21 -42l42 -21 l21 -63l42 -21l21 -42l42 -21l21 -63l42 -21l21 -42l42 -21l21 -63l42 -21l21 -42l21 -42l21 -42l42 -21l21 -63l42 -21l21 -63l42 -21l21 -63l42 -21l21 -63h42l21 -42l42 -21l21 -42h42h84l42 21l21 21l21 42v63l-21 84l-21 168l-21 231l-21 609l-21 189l-21 147l-21 84 l-21 126l-21 105l-21 84l-21 42l-21 21l-42 21h-105l-42 -42l-21 -42v-105l21 -105l21 -126l21 -105l21 -126l21 -210v-609l-21 42l-42 42l-21 42l-21 42l-42 21l-21 42l-42 42l-21 42l-42 21l-21 42l-42 42l-21 42l-42 21l-21 42l-21 42l-42 21l-21 42l-42 21l-21 42 l-42 21l-21 42l-42 21l-21 42l-42 21l-21 42l-42 21l-21 42l-42 21l-21 42l-42 21l-21 42l-42 21l-21 42l-42 42l-21 42l-42 21l-21 42l-42 42l-21 42l-21 63l-21 63l-21 42l-21 42l-63 21h-21l-63 -21l-42 -42zM1743 546h-21h21z" />
<glyph unicode="O" horiz-adv-x="2016" d="M210 1071l21 -336v126l21 -210v63l21 -105l21 -21l21 -84l42 -21v-42l42 -21l21 -42l42 -21l21 -42l42 -21l42 -21l21 -42l63 -21l21 -42l63 -21l42 -21l42 -21l42 -21l63 -21l84 -21h231l126 21l63 21l42 21l21 21l42 42v21l21 42l42 42v21l21 42l21 42l42 42v21l21 42 l21 42l21 42l21 63l21 84l21 84v441l-21 105l-21 63l-21 42l-21 42l-21 42l-21 42l-21 42l-21 42l-42 42l-21 42l-42 21l-21 42l-42 21l-42 21l-21 21l-84 21l-63 21l-21 21l-42 84v21l-21 21l-21 42l-42 21l-63 21h-105l-84 -21l-42 -21l-42 -21l-42 -21l-42 -42l-21 -21 l-42 -42l-21 -21l-42 -42l-21 -21l-42 -42l-21 -42l-21 -21l-21 -42l-21 -42l-21 -21l-21 -42l-21 -42l-21 -42l-21 -42l-21 -63l-21 -42l-21 -84l-21 -84zM1029 1911l42 -42l-42 -42v-126l42 -21l21 -42l231 -21h-42l63 -21l21 -42l42 -21l21 -42l21 -42l42 -21v-42l21 -42 l21 -42l21 -105v-357l-21 -84l-21 -84l-21 -42l-21 -42l-21 -42l-21 -21l-42 -84l-21 -42l-21 -42l-21 -21l-21 -42l-252 -21l-105 42l-42 21l-42 21l-42 21l-42 42l-42 21l-42 42l-42 21l-21 42l-42 21l-21 42l-42 21l-21 42l-21 63l-21 84v336l21 84l21 84l21 42l21 63 l21 42l21 42l21 42l42 42l21 63l42 42l21 21l21 42l42 42l21 21l63 42l21 21l105 21h21z" />
<glyph unicode="P" horiz-adv-x="1827" d="M210 1953l21 -903v231l21 -441v189l21 -357v147l21 -273l21 -21l21 -273l-21 -336v210v-21l21 -210h21v-21h42h63l42 21l21 21l21 42l21 126l21 63v168v357l21 210l126 21l525 21l63 21l42 21l42 21l21 21l42 42v21l42 42v21l21 63l21 42l21 63l21 84l21 126v189l-21 84 l-21 42l-21 42l-21 42l-21 42l-42 42l-21 42l-42 21l-42 21l-105 21h-630l-63 -21l-42 -21l-42 -21l-42 -42l-21 -21h-21l-42 21l-63 21l-63 -21v-21zM609 1155h-21l21 651l42 42h609l42 -21l21 -63l21 -42l21 -63v-126l-21 -105l-21 -84l-21 -42l-21 -63l-21 -21l-42 -42 l-63 -21l-210 21l-42 -21h-294z" />
<glyph unicode="Q" horiz-adv-x="2100" d="M210 1113l21 -420v42l21 -105l21 -42l42 -21v-42l42 -21v-42l42 -21l21 -42l42 -21l21 -42l42 -21l21 -42l42 -21l21 -42l42 -21l21 -42l63 -21l21 -42l84 -21l84 -21h105l84 21l42 21l42 21l21 21l63 42l21 21l42 42l21 21l21 21h42l42 -21l21 -42l63 -21l21 -42l63 -21 l21 -42l42 -21l42 -21h84l42 21l21 63v42l-21 63l-21 42l-42 21l-21 21l-42 21l-42 42l-42 21l-21 21l-42 21v42l21 42l42 42l21 42l21 42l21 42l21 42l21 42l21 42l21 63l21 63l21 84v420l-21 63l-21 63l-21 42l-21 42l-42 21l-21 42l-42 21l-21 21l-42 21l-42 21l-42 21 l-42 21l-42 21l-42 21l-42 84v21h-21l-21 42l-42 21l-105 21h-63l-105 -21l-84 -21l-63 -21l-63 -21l-42 -21l-42 -42l-42 -21l-42 -21l-42 -42l-21 -21l-42 -42l-21 -21l-21 -42l-21 -21l-42 -63l-21 -42l-21 -42l-21 -42l-21 -42l-21 -63l-21 -42l-21 -63l-21 -84z M924 819l21 -147v21l21 -42l42 -21l21 -42l63 -21l21 -42l42 -21l21 -42v-42l-21 -21l-42 -42l-21 -21l-42 -21l-42 -21h-63l-42 21l-42 21l-42 21l-21 42l-42 21l-21 42l-42 21l-21 42l-42 21l-21 42l-42 21l-21 42l-42 42l-21 42l-21 21l-21 84v168l21 126l21 84l21 63 l21 63l21 42l21 63l21 42l42 42l21 42l21 42l42 42l21 21l63 42l21 21l84 42h84l21 -42l84 -21l63 -21l42 -21l63 -21l63 -21l42 -21l42 -21l42 -21l42 -21l42 -21l21 -42l42 -21v-63v-336l-21 -84l-21 -63l-21 -42l-21 -42l-21 -42l-21 -42l-21 -42l-21 -21l-42 -63h-21 l-42 21l-21 42l-42 21l-42 21l-21 42l-42 21l-42 42l-42 21l-126 -21z" />
<glyph unicode="R" horiz-adv-x="1890" d="M210 1743l21 -420v105l21 -189l21 -21l21 -168l21 -231l21 -231l21 -147l21 -399l21 -42l21 -42l84 -21h42l63 21l21 21l21 42l21 42l21 42l21 63v63v63l21 84l-42 315l21 -42l-21 84l63 -21l21 -42l63 -21l21 -42l63 -21l42 -21l21 -42l63 -21l42 -21l21 -42l63 -21 l21 -42l63 -21l21 -42l42 -21l42 -21l21 -63l42 -21l21 -63l42 -21h168l21 21v147l-21 42l-42 21l-21 42l-42 42l-21 42l-42 21l-42 42l-42 21l-21 42l-42 21l-42 21l-21 21l-42 21l-21 21l-42 21v21l84 42l21 21l42 21l21 21l42 42l21 42l21 42l21 42l42 42l21 84l21 42 l21 84v147l-21 63l-21 63l-21 42l-21 42l-42 42l-21 42l-21 42l-21 42l-42 21l-21 42l-42 21l-42 42l-42 21l-42 21l-42 21l-63 21l-147 21l-147 21l-63 21h-168l-42 -21l-42 -21l-42 -42h-21l-42 -42h-21l-42 -84l-21 -42zM672 1806l84 -21l168 -21l84 -21l42 -21l42 -21 l21 -42l42 -21l21 -42l42 -21v-42l42 -21v-42l21 -42l21 -42v-105l-21 -63l-21 -42l-21 -42l-21 -42l-21 -21l-42 -63l-21 -21l-63 -21h-84l-84 21l-84 21l-42 21l-42 21l-42 21l-42 21l-84 21l-21 21l-42 252v42l21 357h21l21 21h84h21zM693 756h-21h21z" />
<glyph unicode="S" horiz-adv-x="1680" d="M210 1470l21 -294v42l21 -105l42 -21l21 -42l63 -21l42 -21l63 -21l84 -21l42 -21l42 -21l42 -21l63 -21l147 -21l147 -21l42 -21v-42l42 -21v-42l21 -42l21 -42l21 -63v-42l-21 -84l-21 -21l-42 -63l-21 -21l-399 42l84 -21l-168 42h-42v42l-42 168l21 -21l-42 42 l-126 -21l-42 -21l-21 -21l-21 -63l-21 -63l21 -63l21 -84l21 -42l42 -21l21 -42l42 -21l63 -21l63 -21l84 -21l147 -21h378l42 21l42 21l21 21l42 42l21 21l21 42l42 42l21 42l21 42l21 147l-21 168l-21 42l-21 42l-21 42l-21 42l-21 42l-21 42l-21 21l-21 42l-42 21 l-42 42l-42 21l-105 21l-168 21l-84 21l-42 21l-63 21l-42 21l-84 21l-63 21l-21 21l21 252v-21l21 63l42 42v21l42 42l21 21l42 42l21 21l84 42l63 21h21l42 -21l42 -21l21 -42l42 -21l42 -21l21 -42l42 -21l42 -21l63 -21h147l21 21l21 42v42l-21 42l-21 42l-42 21l-42 21 l-42 21l-42 21l-21 42l-42 21l-21 42l-42 21l-21 21l-42 21l-42 21l-42 21h-147l-63 -21l-63 -21l-42 -21l-42 -21l-42 -42h-21l-42 -42l-21 -21l-42 -42l-21 -21l-42 -63l-21 -42l-21 -21l-42 -105l-21 -63z" />
<glyph unicode="T" horiz-adv-x="2184" d="M210 2058l21 -126h21v-21h294l126 -21l168 -21l147 -21v-399l21 -126l21 -168v-336v-336l21 -483h21v-21h63h21l63 21v21l21 42l21 819v126l-21 273l-21 105l-21 105v357h273l84 -21l63 -21h252l63 21l21 21l21 42v84l-21 42l-42 21h-147h-42l-63 21l-105 21l-525 21h-63 h-84h-63l-336 42l105 -21l-168 21l-42 -21l-126 -21z" />
<glyph unicode="U" horiz-adv-x="1806" d="M210 1743l21 -630l21 -63l21 -378l21 -189l21 -168l21 -21l21 -84l42 -21v-42l63 -21l21 -42l63 -21l21 -42l63 -21l42 -21l42 -21l42 -21l63 -21h231l42 21l21 21l42 21l21 21l21 42l42 42l21 21l42 42l21 21l21 42l42 42l21 42l21 42l42 42l21 84l21 42l21 63l21 42 l21 63l21 84v294v357l-21 63l-21 126l-21 126l-21 231l-21 42l-21 42h-126l-42 -21l-21 -42v-105l21 -42l21 -273l21 -21l21 -525l21 -21l-42 -294l21 63l-42 -105v-21l-42 -105l-21 -42l-21 -42l-21 -42l-21 -21l-21 -42l-21 -21l-42 -42l-21 -21l-42 -42l-21 -21l-21 -42 l-42 -21h-105l-42 21l-42 21l-42 21l-42 21l-42 21l-21 21l-42 21l-21 21l-42 42l-21 63l-21 126l-21 357l-21 189l-21 336v420v126l-42 42h-84l-42 -42l-21 -63z" />
<glyph unicode="V" horiz-adv-x="2037" d="M210 1806l21 -105h21v-21h21l21 -42l21 -63l21 -84l21 -84l21 -84l21 -63l21 -63l21 -84l21 -84l21 -63l21 -84l21 -63l21 -63l21 -63l21 -42l21 -63l21 -42l21 -42l21 -42l21 -63l21 -42l21 -63l21 -42l21 -63l21 -42l21 -63l21 -42l21 -42l42 -21l21 -42l21 -21h105 l63 21l21 21l42 42l21 84l21 42l21 63l21 63l21 84l21 63l21 84l21 63l21 63l21 84l21 84l21 63l21 84l21 63l21 42l21 42l21 63l21 42l21 42l42 42l21 84l21 42l21 63l21 63l21 63l21 84l21 84l21 105l21 42l21 42v126l-21 42l-42 42l-42 21h-42l-42 -21l-42 -21l-21 -42 l-21 -63l-21 -63l-21 -21l-42 -210l21 63l-42 -147l-21 -63l-21 -63l-21 -42l-21 -63l-21 -42l-21 -42l-21 -42l-21 -21l-42 -105l-21 -42l-21 -63l-21 -63l-21 -84l-21 -84l-21 -63l-21 -84l-21 -63l-21 -63l-21 -84l-21 -84l-21 42l-21 42l-21 63l-21 42l-21 42l-21 42 l-21 63l-21 42l-21 42l-21 84l-21 63l-21 63l-21 63l-21 84l-21 84l-21 63l-21 63l-21 84l-21 63l-21 84l-21 63l-21 84l-21 84l-21 63l-21 42l-21 42l-42 42h-126l-42 -21l-21 -42z" />
<glyph unicode="W" horiz-adv-x="2646" d="M210 1953l21 -168h21v-21l21 -63l21 -126l21 -84l21 -84l21 -63l21 -84l21 -84l21 -63l21 -63l21 -63l21 -63l21 -63l21 -63l21 -63l21 -42l21 -42l21 -63l42 -21l21 -63l21 -42l42 -21l21 -105l21 -63l21 -84l21 -63l21 -63l21 -42l21 -42l21 -42h42h126l42 21l21 21 l21 42l21 42l21 84l21 147l21 168l21 168l21 42l42 -21v-42l21 -42l21 -42l21 -42l21 -42l42 -21v-42l42 -21l21 -63l42 -21l21 -42l63 -21l21 -42l84 -21l21 -84l42 -21l21 -42l42 -21h126l21 21l42 42l21 42l21 42l21 105l21 126l21 147l21 84l21 147l21 147l21 126 l21 105l21 63l21 105l21 63l21 84l21 84l21 84l21 84l21 126v147l-21 168l-21 42l-21 42h-147l-42 -42l-21 -21l-21 -378l-21 -84l-21 -84l-21 -105l-21 -63l-21 -84l-21 -84l-21 -84l-21 -105l-21 -126l-21 -126l-21 -147l-21 -105l-21 -126l-21 -42l-21 21l-42 21l-42 21 l-21 42l-42 42l-21 42l-42 42l-21 42l-21 42l-21 63l-21 42l-21 42l-21 63l-21 84l-21 84l-21 42l-42 21l-42 21h-21l-42 -21l-42 -21l-42 -42l-21 -42l-21 -42l-21 -42l-21 -42l-21 -21l-21 -42l-21 -42l-21 -42l-21 -63l-21 -63l-21 -105l-21 42l-21 42l-42 42l-21 42 l-21 21l-21 42l-21 42l-21 63l-21 63l-21 63l-21 63l-21 63l-21 63l-21 63l-21 84l-21 63l-21 63l-21 84l-21 84l-21 84l-21 63l-21 105l-21 105l-21 42l-21 42h-105l-42 -21l-42 -63z" />
<glyph unicode="X" horiz-adv-x="1869" d="M210 2037l21 -210v63l21 -126l21 -42l21 -42l21 -42l21 -42l21 -42l21 -42l21 -42l42 -21l21 -63l21 -42l42 -21l21 -84l42 -21v-42l42 -21l-21 -105l-21 -42l-21 -63l-21 -63l-21 -84l-21 -63l-21 -84l-21 -63l-21 -84l-21 -63l-21 -42l-21 -42l-21 -63l-21 -42l-21 -42 l-21 -42l-21 -63l-21 -63v-126l42 -21l21 -42l168 42l21 21l21 21v21l21 21l21 84l21 42l21 42l21 63l21 42l21 42l21 63l21 63l21 63l21 84l21 63l21 84l21 63l42 -21l21 -63l21 -42l42 -21l21 -84l42 -21v-42l21 -42l42 -21v-42l42 -21v-42l21 -42l21 -42l42 -21v-42 l42 -21v-42l42 -21l21 -63l42 -21l42 -21l21 -42l42 -21h147l21 21l42 42v42v21l-21 84l-21 42l-21 21l-42 42l-21 42l-63 42l-21 21l-42 42l-21 42l-21 42l-42 63l-21 42l-21 21l-21 42l-21 42l-21 21l-21 42l-21 42l-21 21l-21 42l-21 42l-21 21l-21 42l-21 42l-21 21 l-21 42l-21 21l-21 42v63l21 63l21 42l21 63l21 42l21 42l21 42l21 42l21 42l21 42l21 42l42 42l21 63l42 42v21l42 42v21l42 42v21l42 42l21 21l42 42l21 21v105l-21 42l-42 42h-84l-42 -21l-42 -21l-42 -42l-21 -21l-42 -63l-21 -21l-42 -63l-21 -21l-42 -63l-21 -21 l-42 -84l-21 -21l-21 -42l-21 -21l-21 -42l-21 -42l-21 -42l-21 -42l-21 -42l-21 -42h-21l-42 42l-21 42l-42 42l-21 42l-21 42l-21 21l-21 42l-21 42l-21 42l-21 21l-21 126l-21 63l-21 42l-42 42h-105l-42 -21z" />
<glyph unicode="Y" horiz-adv-x="1953" d="M210 1764l21 -147v21l21 -84l21 -42l42 -21v-42l21 -42l21 -42l42 -21v-42l42 -21v-42l42 -21l21 -63l42 -21l21 -42l21 -42l42 -21l21 -42l42 -21l21 -42l42 -21l21 -42h42l21 -42l63 -21l-42 -63l-21 -63l-21 -42l-21 -42l-21 -63l-21 -63l-21 -42l-21 -63l-21 -63 l-21 -21l-42 -63l-21 -21l-42 -63l-21 -21l-42 -63l-21 -21l-21 -84l21 -63l42 -21l42 -21h126l42 21l21 21l21 42l21 42l42 42v21l42 42l21 21l21 42l42 42v21l21 42l21 84l21 63l21 42l21 63l21 42l21 42l21 42l21 63l21 42l42 42l21 42l21 42l21 63l21 42l21 42l21 42 l21 42l21 63l21 42l21 42l21 63l21 42l21 42l21 63l21 63l21 63l21 42l21 63l42 42l21 42l42 42l21 63l21 63v21l-21 63l-21 42l-42 21h-126l-42 -42l-21 -21l-42 -42l-21 -21l-42 -63l-21 -21l-42 -63l-21 -21l-42 -84l-21 -42l-21 -21l-21 -42l-21 -42l-21 -42l-21 -63 l-21 -42l-21 -63l-21 -63l-21 -63l-21 -63l-21 -63l-21 42l-42 21l-42 42l-42 42l-21 42l-42 21l-21 42l-42 42l-21 42l-42 21l-21 42l-21 42l-21 42l-21 21l-21 42l-21 21l-21 42l-21 42l-21 63l-21 42l-42 42l-21 42l-21 21l-63 -21l-42 -84l-21 -21v-21z" />
<glyph unicode="Z" horiz-adv-x="2331" d="M210 1848l21 -105l42 -21l21 -42h147l21 -42l63 21l21 63l987 42l-294 -21l315 21l-42 -63l-21 -42l-21 -21l-42 -63l-21 -21l-42 -63l-21 -21l-42 -63l-21 -21l-42 -63l-21 -21l-42 -84l-21 -21l-42 -63l-21 -21l-42 -63l-21 -21l-42 -63l-21 -21l-42 -42l-21 -42 l-21 -21l-42 -42l-21 -21l-42 -21l-42 -42l-21 -21l-42 -42l-21 -21l-42 -21l-42 -42l-21 -21l-42 -42l-42 -21l-21 -126l21 -105l42 -21l21 -42h42l63 -21l63 -21l63 -21l63 -21l63 -21l126 -21h609l63 21l21 21l189 42h21l126 42l42 21l21 42l21 63v21l-21 63l-21 42 l-42 21h-105l-63 -21l-84 -21l-84 -21l-84 -21l-42 -21l-126 -21h-357l-126 21l-63 21l-63 21v21l63 42l21 21l42 42l21 21l42 42l21 21l42 42l21 21l42 42l21 21l21 42l42 42l21 42l42 42v21l42 42l21 21l21 42l42 42v21l42 42v21l42 42l21 42l42 42l21 42l42 42l21 42 l42 42v21l42 42l21 21l42 42l21 21l42 42l21 21l63 42l42 21l21 21l42 42l21 42v126l-21 42l-21 21l-42 21h-42l-819 -21h210l-693 -21l-336 -21l-42 -21l-42 -42z" />
<glyph unicode="[" horiz-adv-x="1260" d="M210 1722l21 -1071v315l21 -441v105l21 -210l21 -21l21 -189l21 -21l21 -168v42l21 -63l42 -21h126l21 21l63 -21l273 21l63 21l42 21l21 21l21 63v21l-21 63l-21 42l-42 21h-84h-294l-21 21l-21 105l-21 105l-21 84l-21 126l-21 420v588l84 42l126 21l126 21l105 21 l21 21v105l-63 42h-42l-357 -21l-42 -21l-84 -21l-21 -21l-42 -42l-21 -21z" />
<glyph unicode="\" horiz-adv-x="1533" d="M210 1827l21 -252v42l21 -63l42 -21l21 -63l21 -42l42 -21l21 -63l21 -42l42 -21l21 -63l42 -21l21 -63l21 -42l42 -21l21 -63l21 -42l42 -21l21 -63l21 -42l21 -42l42 -21l21 -63l42 -21l21 -84l42 -21v-42l21 -42l42 -21v-42l21 -42l21 -42l21 -42l21 -42l21 -42 l21 -42l21 -42l63 -21h63l42 21l21 21v126l-21 42l-21 42l-21 42l-21 42l-21 42l-21 42l-42 63l-21 42l-21 21l-21 42l-21 42l-21 21l-21 42l-21 21l-21 42l-21 21l-21 42l-21 21l-21 42l-21 21l-21 42l-21 21l-21 42l-21 21l-21 42l-21 21l-21 42l-21 21l-21 42l-21 21 l-21 42l-21 21l-21 42l-21 21l-21 42l-21 21l-21 42l-42 42l-21 42l-21 21l-21 42l-21 105l-21 42h-126z" />
<glyph unicode="]" horiz-adv-x="1302" d="M210 1953l21 -147h21v-21h42l294 -21l231 -21l-21 -21l21 -567v147l21 -315l21 -21v-567v-21l-42 -105h-21l-189 21l-42 42l-42 21l-126 -21l-42 -21l-21 -126l21 -84l63 -21l105 -21h420l63 21l42 21v21l21 84l21 63v399l-21 336l-21 168l-21 168v336l42 42l21 21v105 l-21 42l-42 21l-63 21l-126 21l-483 42h-42l-84 -21z" />
<glyph unicode="^" horiz-adv-x="1386" d="M210 1596l21 -63l21 -42l147 42l21 21l21 21l21 21l21 21v21l21 21l21 21l21 42l42 42l21 21l42 -21l21 -42l42 -21l21 -42l63 -21l21 -42l63 -21l42 -21l21 -42l63 -21l21 -21l105 42l21 21l21 21v21l-21 42v21l-21 21l-42 42l-42 21l-42 42l-42 21l-42 21l-42 42 l-42 21l-42 42l-42 42v42l-42 63l-21 42h-84l-42 -21l-42 -63l-21 -21l-42 -42l-21 -42l-21 -21l-42 -63l-21 -21l-42 -63l-21 -21l-42 -42l-21 -42z" />
<glyph unicode="_" horiz-adv-x="1407" d="M210 252l21 -126v21l42 -21l84 -21l189 -21h105l105 21l63 21l63 21h84l21 -42l21 -21h105l63 21l21 42v63l-21 42l-42 42l-42 21l-42 42h-42l-210 -21h42l-105 -21l-42 -21h-315l-42 21h-42l-42 -21z" />
<glyph unicode="`" horiz-adv-x="500" d="M63 0v800h375v-800h-375zM125 63h250v675h-250v-675z" />
<glyph unicode="a" horiz-adv-x="2100" d="M210 504l21 -294v42l21 -84l42 -21l21 -42l63 -21l63 -21l84 -21h231l105 21l42 21l42 21l42 21l42 21l21 21l63 42l21 21l42 21l21 -42l42 -21l42 -21l21 -42l105 -21h252l84 21l63 21l21 21l42 42l21 21l-42 42l-63 42h-126l-84 -21h-105l-63 21l-42 21l-21 42l-42 42 l-21 42v63l21 84l21 63l-21 84l-21 63l-21 42l-21 21l-42 21l-42 63l-21 42l-42 21l-63 42l-63 21h-147l-84 -21l-63 -21l-42 -21l-42 -42l-42 -21l-42 -42l-42 -21l-21 -42l-21 -21l-42 -42l-21 -21l-21 -42l-21 -21l-21 -42l-21 -42l-21 -42l-21 -42zM714 231h-147 l-105 21l-42 21l-21 42v126l21 42l21 42l21 63l42 42l21 42l42 42l21 21l42 42l21 21l63 42l42 21l42 21l63 21h63l63 -21l21 -42l42 -21l21 -21l-21 -126v-210v126l21 -21l-42 -147l21 21l-42 -63l-42 -21l-42 -42l-42 -21l-42 -21l-42 -21z" />
<glyph unicode="&#xe0;" horiz-adv-x="2100" d="M210 504l21 -294v42l21 -84l42 -21l21 -42l63 -21l63 -21l84 -21h231l105 21l42 21l42 21l42 21l42 21l21 21l63 42l21 21l42 21l21 -42l42 -21l42 -21l21 -42l105 -21h252l84 21l63 21l21 21l42 42l21 21l-42 42l-63 42h-126l-84 -21h-105l-63 21l-42 21l-21 42l-42 42 l-21 42v63l21 84l21 63l-21 84l-21 63l-21 42l-21 21l-42 21l-42 63l-21 42l-42 21l-63 42l-63 21h-147l-84 -21l-63 -21l-42 -21l-42 -42l-42 -21l-42 -42l-42 -21l-21 -42l-21 -21l-42 -42l-21 -21l-21 -42l-21 -21l-21 -42l-21 -42l-21 -42l-21 -42zM714 231h-147 l-105 21l-42 21l-21 42v126l21 42l21 42l21 63l42 42l21 42l42 42l21 21l42 42l21 21l63 42l42 21l42 21l63 21h63l63 -21l21 -42l42 -21l21 -21l-21 -126v-210v126l21 -21l-42 -147l21 21l-42 -63l-42 -21l-42 -42l-42 -21l-42 -21l-42 -21z" />
<glyph unicode="b" horiz-adv-x="1407" d="M210 1722l21 -693v210l21 -462l21 -21l21 -609v105l21 -147v21l42 -21l21 -63l63 -21h252l147 21l63 21l63 21l21 21l63 42l21 21l42 42v21l21 42l42 42v42l21 126v126l-21 105l-21 63l-21 42l-21 42l-42 42l-21 42l-42 21l-42 21l-21 21l-63 21h-252l-42 -21l-42 -21 l-42 -21l-42 -42l-21 -21l-42 42l-42 420v42l-42 336v21h-21l-63 -21zM777 231h-252l-42 21v42l-21 294v-126l21 210v-42l21 84l42 42l21 21l42 21l21 21l42 21h21l189 -21h-21l63 -21l21 -42l21 -42l21 -42v-252l-21 -42l-21 -42l-21 -42l-42 -21l-42 -21z" />
<glyph unicode="c" horiz-adv-x="1281" d="M210 546l21 -273v63l21 -105l21 -21l21 -63l21 -21l21 -42l42 -21l21 -42l105 -21h273l42 21l42 21l42 21l21 21l63 42l21 42l42 42l21 21v126l-21 21l-126 -21l-21 -21l-21 -21l-21 -21v-21l-42 -42l-42 -21l-42 -21l-42 -21h-126l-63 21l-42 21l-21 42l-21 42l-21 63 v189l21 42l21 63l21 42l42 42l21 42l42 42l21 21l63 42l21 21l63 42l42 21h42l42 -21l21 -42l84 42l21 63h-21v21l-21 21l-21 42l-42 21l-126 21l-84 -21l-42 -21l-42 -21l-42 -42h-21l-42 -42l-21 -21l-42 -42l-21 -21l-42 -42l-21 -42l-21 -21l-42 -84l-21 -42l-21 -63z " />
<glyph unicode="&#xe7;" horiz-adv-x="1281" d="M210 546l21 -273v63l21 -105l21 -21l21 -63l21 -21l21 -42l42 -21l21 -42l105 -21h273l42 21l42 21l42 21l21 21l63 42l21 42l42 42l21 21v126l-21 21l-126 -21l-21 -21l-21 -21l-21 -21v-21l-42 -42l-42 -21l-42 -21l-42 -21h-126l-63 21l-42 21l-21 42l-21 42l-21 63 v189l21 42l21 63l21 42l42 42l21 42l42 42l21 21l63 42l21 21l63 42l42 21h42l42 -21l21 -42l84 42l21 63h-21v21l-21 21l-21 42l-42 21l-126 21l-84 -21l-42 -21l-42 -21l-42 -42h-21l-42 -42l-21 -21l-42 -42l-21 -21l-42 -42l-21 -42l-21 -21l-42 -84l-21 -42l-21 -63z " />
<glyph unicode="d" horiz-adv-x="1638" d="M210 462l21 -189v21l21 -63l42 -21l21 -42l42 -21l21 -42l105 -21l42 -21h210l42 21l42 21l63 21l42 21l21 21l63 42l21 21l42 21l21 -42l42 -21l21 -42l63 -21l21 -42l63 -21h84l21 21l21 42v42l-21 42l-21 42l-42 21l-42 21l-21 21l-42 42l-21 294l-21 63l-21 525 l-21 273l-21 84l-21 42h-105l-42 -42l-21 -42l-21 -42v-63l21 -63l21 -252l21 -63l-21 -189h-21l-63 42h-42l-189 -21h42l-105 -21l-42 -21l-42 -42l-63 -21l-42 -42l-21 -21l-42 -63l-21 -21l-42 -63l-21 -21zM693 252h-126l-42 21l-42 21l-42 21l-42 42v84l21 42l42 42 l21 42l42 42l21 21l42 42l42 21l42 21l42 21l105 21h21l21 -42l21 -21l105 42l21 21l-42 -189l-21 -84l-21 -63l-21 -21l-42 -63l-42 -21l-42 -21l-42 -21z" />
<glyph unicode="e" d="M210 588l21 -315v63l21 -147l21 -63l21 -63l42 -21l21 -63l84 -21l42 -21l42 -21l21 -42l126 -21l168 21l63 21l42 21l63 21l42 21l21 21l42 42v21v105l-21 42l-42 21h-84l-42 -21l-42 -42l-63 -21l-42 -21l-63 -21l-84 42l-42 21l-42 21l-42 21l-42 126v42h42l63 -21 l126 21h42l84 -21l252 42l-21 -21l42 42l21 21l42 42l21 21l42 42l21 63v189l-21 42l-21 42l-21 42l-42 21l-42 42l-42 21l-21 21l-63 21h-273l-63 -21l-63 -21l-63 -21l-42 -21l-42 -42l-42 -21l-42 -63l-21 -21l-42 -63l-21 -42l-21 -42zM504 567h-42l21 63l42 42v21 l63 42l42 21l42 21l84 21h147l42 -21l42 -21l21 -42v-63l-21 -21l-42 -42l-21 -21h-378h-42z" />
<glyph unicode="&#xe9;" d="M210 588l21 -315v63l21 -147l21 -63l21 -63l42 -21l21 -63l84 -21l42 -21l42 -21l21 -42l126 -21l168 21l63 21l42 21l63 21l42 21l21 21l42 42v21v105l-21 42l-42 21h-84l-42 -21l-42 -42l-63 -21l-42 -21l-63 -21l-84 42l-42 21l-42 21l-42 21l-42 126v42h42l63 -21 l126 21h42l84 -21l252 42l-21 -21l42 42l21 21l42 42l21 21l42 42l21 63v189l-21 42l-21 42l-21 42l-42 21l-42 42l-42 21l-21 21l-63 21h-273l-63 -21l-63 -21l-63 -21l-42 -21l-42 -42l-42 -21l-42 -63l-21 -21l-42 -63l-21 -42l-21 -42zM504 567h-42l21 63l42 42v21 l63 42l42 21l42 21l84 21h147l42 -21l42 -21l21 -42v-63l-21 -21l-42 -42l-21 -21h-378h-42z" />
<glyph unicode="f" horiz-adv-x="1638" d="M210 903l21 -105l42 -21l84 -21l294 -21v-126v-315v-273v-42v-21l21 -105l42 -21h126l42 21v21l21 42v168v210l21 42l-21 378l231 -21l21 -21l231 42l-21 -21l42 42v105l21 -42l-42 84l-21 42l-189 21l-84 21l-231 21l-21 189l-21 168v357l21 63h126l21 -42h42l21 -42h42 l21 -42h42l21 -42l105 21l21 63l-21 63l-21 42l-21 21l-21 42l-42 21l-42 42l-42 21l-42 42l-63 21h-231l-42 -21l-42 -42l-21 -42l-21 -21l-42 -126v-21v-756h-168h-42l-147 -21z" />
<glyph unicode="g" horiz-adv-x="1428" d="M210 378l21 -189l21 -21l21 -42l42 -21l21 -42l63 -21l63 -21h210l63 21l42 21l42 21l21 21l42 42h21l21 -147l21 -21l21 -147l21 -21l-42 -189l21 21l-42 -42l-21 -21l-42 -42l-42 -21l-42 -21l-63 -21h-126l-42 21l-42 21l-21 42l-42 63h-21l-21 -21l-42 -21l-42 -42 l-21 -42v-105l42 -21v-42l42 -21l21 -42l84 -21l105 -21h105l105 21l63 21l42 21l42 21l21 21l63 42l42 21l21 21l21 42l42 42l21 42l21 63l21 84v42v42l-42 210l21 -21l-42 105l-21 84l-21 84l-21 126v105l21 84l21 105l21 42v105l-21 42l-21 42l-21 21l-21 42l-42 21 l-42 21h-252l-63 -21l-42 -21l-42 -21l-42 -42l-42 -21l-42 -42l-21 -21l-42 -42l-21 -21l-21 -42l-21 -21l-21 -42l-21 -21l-21 -42l-21 -42l-21 -42zM630 252h-126l-42 21l-21 21v63l21 63l21 42l21 42l42 42l21 42l42 42l21 21l42 42l21 21l42 21l42 21l42 21h63l42 -21 l-42 -63l-21 -147l-21 -84l-21 -21l-42 -63l-21 -21l-42 -42l-21 -21l-42 -42h-21z" />
<glyph unicode="h" horiz-adv-x="1722" d="M210 1974l21 -420v105l21 -210l21 -21l21 -294l21 -21l21 -1176h21v-21l105 21l21 21l21 42l21 252l21 294l21 126l21 42l21 42l21 42l42 42l21 42l21 42l42 42l42 21h126l42 -21l42 -21l42 -21l21 -42l63 -21l21 -42l42 -21l21 -63l21 -63l21 -84v-525v-84l21 -42 l42 -21h105l42 21l21 42l21 105v462l-21 126l-21 84l-21 63l-21 63l-21 42l-42 42l-21 42l-42 21l-42 42l-42 21l-21 21l-42 21l-21 21l-42 21l-42 21l-63 21h-231l-63 -21l-42 -21l-42 -42l-21 -21l-42 -42h-21l-21 147l-21 42l-21 147l-21 105l-21 105l-21 105l-21 168v63 v21l-21 42l-63 21l-63 -21v-21z" />
<glyph unicode="i" horiz-adv-x="714" d="M210 1533l21 -126h21v-21h21l42 -21h42l42 21l21 21l63 42l21 84l-21 21l-21 42l-63 21h-126l-42 -42zM231 987l21 -1008v42l21 -42l63 -21l63 21l21 21l21 84v63v357l-42 483l-21 42h-105z" />
<glyph unicode="j" horiz-adv-x="1050" d="M210 -336l21 -105h42l21 -42h63h168l63 21l42 21l21 21l63 42l21 21l42 42v21l21 42l21 42l21 84v504l-21 147l-21 168l-21 105l-21 63l-21 63l-21 63l-21 42h-84l-42 -42v-21l21 -294l21 -21l21 -525l21 -126l-42 -126l-21 -63l-21 -21l-42 -21l-42 -42l-105 21h-105 l-42 -42zM567 1512l21 -63l42 -21l42 -21h63l21 21l42 42l21 21l-42 105h21l-42 21l-63 21l-84 -21v-21l-21 -63z" />
<glyph unicode="k" horiz-adv-x="1197" d="M210 1386l21 -819l21 -336v63l21 -147l21 -105l21 -42l126 21v63v42l-42 168l21 -42l-21 189v105l42 -21l21 -63l63 -21l21 -42l42 -21l21 -42l42 -21l21 -42l42 -21l21 -63l42 -21l21 -84l42 -21l21 -42l126 42v21l-21 63v21l-21 21l-21 42l-21 21l-21 42l-21 21l-21 42 l-42 21l-21 42l-21 42l-42 21l-42 42l-42 21l-42 42l-42 21l-42 42l-42 21l-21 21l84 42l21 21l63 42l42 21l42 21l63 21l42 21l21 21l63 42l42 21l42 21v21v63l-21 42h-84l-42 -21l-42 -42l-42 -21l-42 -21l-42 -21l-42 -21l-42 -21l-42 -21l-42 -42l-21 -21l-42 -42h-21 l-42 336l21 -105l-42 252v21l21 42l-42 126v21h-21l-42 -21zM420 693h-21h21z" />
<glyph unicode="l" horiz-adv-x="756" d="M210 1953l21 -546l21 -21v-336v-21l21 -210v-210v-21l21 -21l-21 -588l21 -21l21 -63h126h21l42 42l21 126v210l21 42l-42 609v42l-42 609l21 -189l-42 357l21 -126l-42 336l-21 42l-63 42h-21l-63 -21z" />
<glyph unicode="m" horiz-adv-x="2079" d="M210 672l21 -651v21l21 -42l147 42l21 21v21v21l21 21l21 273v-42l21 105l21 42l42 42l21 63l42 42v21l42 42l21 21l42 42l42 21l63 21h21l21 -42l21 -42l21 -63v-210l-21 -42l-21 -63l-21 -84v-168l21 -42l63 -21h84l21 21l42 21l21 63l21 84l21 84l21 126l21 42l42 42 l21 42l42 42l21 21l42 42l21 42l63 21l21 -42l63 -21l21 -42l21 -42l21 -42l42 -21v-84v-126l-21 -63l-21 -63l-21 -42l-21 -42v-84l21 -42l42 -21h126l21 21l21 42l21 42l21 63l21 42l21 63l21 168v21l-21 105l-21 63l-21 42l-21 42l-21 42l-21 42l-21 21l-21 42l-42 21 l-21 42l-42 21l-42 21l-63 42h-42l-168 -21h21l-42 -21l-42 -21l-42 -42l-21 -21l-42 -63l-21 42l-21 42l-21 42l-21 42l-42 21l-21 42l-63 21h-168l-63 -21l-42 -21l-42 -42l-42 -21l-42 -42l-21 -21l-42 -42l-21 -42l-21 42l-42 21l-84 -21l-21 -21l-21 -21v-21z" />
<glyph unicode="n" d="M210 546l21 -462l21 -42l21 -42l63 -21h84l21 21l42 42v42v147v231l21 63l21 42l21 42l21 42l42 42l42 21l42 21h63l42 -21l42 -21l21 -42l42 -21v-42l42 -21v-42l42 -21v-42l21 -63v-273v-84l21 -42l42 -21h105l21 21l42 42v42v378l-21 63l-21 42l-21 42l-21 42l-21 42 l-42 42l-21 42l-21 42l-42 21l-21 42l-42 21l-42 21l-42 21l-63 21h-168l-42 -21l-42 -21l-42 -21l-42 -21h-42l-42 21h-84l-42 -42l-21 -21z" />
<glyph unicode="o" horiz-adv-x="1533" d="M210 672l21 -294v63l21 -126l21 -42l21 -42l42 -21l21 -63l63 -21l21 -42h42l63 -21l63 -21l105 -21h126l84 21l63 21l21 21l63 42l21 21l63 42l21 42l42 42v21l21 42l21 42l21 42l21 63l21 126v42l-21 126l-21 42l-21 42l-21 42l-21 42l-42 21l-21 42l-42 21l-21 42 l-42 21l-42 42l-42 21h-42l-189 -21l-42 -21l-42 -42l-126 -21l-42 -21l-42 -21l-42 -42l-21 -21l-42 -42l-21 -42l-21 -21l-42 -63l-21 -42zM861 273h-210l-42 21l-63 21l-42 21l-21 42l-21 42l-21 63v147l21 42l42 42v21l42 42l21 21l42 42l63 21l63 21l63 21l63 21h21 l21 -42l42 -21l21 -42h42l21 -42l21 -42l21 -42v-126l-21 -63l-21 -42l-21 -42l-21 -42l-21 -21l-42 -42l-42 -21z" />
<glyph unicode="p" d="M210 966l21 -189l21 -399v126l21 -378l21 -273l21 -126v-126v-42l21 -84l21 -336l42 -21l42 -21h42l42 21l21 21v231l-21 399l-21 147v21l189 42l63 21l105 21l63 21l42 21l63 21l21 21l63 42l21 42l21 42l21 42l21 42l21 42l21 84v168l-21 126l-21 63l-21 42l-21 42 l-42 21l-21 42l-42 21l-21 21l-42 21l-42 21l-42 21l-42 21h-42h-210h-42l-147 -21h21l-42 -21h-21l-21 21l-126 -21v-21zM546 861l273 -21l21 -42h42l42 -21l21 -42h42l21 -126v-126v84l21 -21l-42 -126l-21 -42l-21 -42l-21 -42l-63 -21l-42 -21l-63 -21l-105 -21h-168 l-42 336l21 -84l-21 315l-21 63v21h105h21z" />
<glyph unicode="q" horiz-adv-x="1869" d="M210 525v-42v-21l21 -21l21 -210v21l21 -63l42 -21l21 -42l42 -21l42 -21l42 -21l63 -21l84 -21h105l63 21l42 21h21l21 -378l21 -21l21 -399v63l21 -105l21 -42l42 -21l21 -42l42 -21l42 -21l42 -21h336l42 21l42 21l21 42l42 42l21 84l21 84v126l-21 42l-42 21h-63 l-42 -21l-42 -42l-21 -63l-21 -84l-21 -63l-189 21l-42 21l-42 42l-21 336l-21 189l-21 231v189l21 63l21 105v147l-21 126l-21 63l-21 63l-21 63l-21 63l-21 42l-21 21l-357 21h189l-231 -21l-42 -21l-42 -42l-42 -21l-42 -42l-21 -42l-21 -21l-42 -63l-21 -42l-21 -42 l-21 -63zM672 252h-63l-63 21l-42 21l-42 21l-21 42v42l21 231v-21l21 63l21 42l42 42l21 21l42 42l21 21l126 21h21v-21l21 -252l21 -21v-231l21 105l-42 -126h-21l-21 -21l-42 -21z" />
<glyph unicode="r" horiz-adv-x="1344" d="M210 924v-399v-21l21 -315v63l21 -84h21v-21h21l21 -63l42 -21l63 -21h21l63 21l21 21v147l-21 105l-21 126v126l21 42l21 42l21 42l42 42v21l42 42l21 21l189 -21h-21l84 -21l42 -21l84 -21h21l63 21l21 21v105l-21 42l-42 42l-42 21l-63 21l-42 21l-63 21l-84 21h-126 l-84 -21l-42 -21l-42 -42l-42 -21l-21 -42h-21l-42 21l-63 21l-42 -21z" />
<glyph unicode="s" horiz-adv-x="1260" d="M210 672l21 -126h21v-21h42l336 -21l84 -21l21 -42v-63l-21 -63l-21 -21l-42 -63l-84 -21h-105l-63 21l-21 21l-42 -21l-42 -42l-21 -21v-105l21 -42l63 -21l84 -21h147l105 21l42 21l42 21l21 21l42 42l21 21l42 42v21l21 42l21 42l21 84v105l-21 63l-21 42l-21 42 l-21 42l-42 21l-63 21l-63 21l-84 21l42 21l42 21h21l168 -21v-21l126 21l21 84v21l-21 42l-21 42l-42 21l-21 21l-105 21h-126l-84 -21l-42 -21l-42 -21l-42 -42l-42 -21l-42 -21l-42 -42l-42 -21l-42 -42l-42 -21z" />
<glyph unicode="t" horiz-adv-x="1512" d="M210 1113l21 -126h21v-21h42l168 -21l42 -21l42 -21l63 -21l63 -21v-315l21 -21l21 -462v42l21 -63h105l-42 -21l84 42l21 42v105v357l-21 126v210l126 -21l84 21l189 21l21 42v84l-21 42l-42 21l-126 21l-189 -21l-84 42l-21 126l-21 21l-21 168l-21 63l-21 42h-84 l-42 -105v-21l21 -336v126v-147l-84 42h-42l-105 21h42l-189 -21h-42v-21z" />
<glyph unicode="u" d="M210 945l21 -399v147l21 -231v63l21 -147l21 -63l21 -42l42 -21l21 -63l42 -21l42 -21l21 -42h42l84 -21h168l42 21l42 21l21 21l21 42l42 42l21 42l42 21l21 -126l21 -42l42 -21h105l42 21v42v42l-21 63l-21 126l-21 105l-21 147v21l21 42l-21 273l21 42l-42 84v21h-21 l-105 -21l-21 -21v-21l-21 -126l-21 -63v-252l-21 -42l-21 -42l-21 -42l-21 -42l-21 -42l-21 -42l-21 -21l-42 -63l-21 -21h-147l-42 21l-42 21l-21 42l-42 63v42l-42 105l-21 126v294l21 42v42l-21 42l-21 21h-42l-42 -21l-21 -42l-21 -42z" />
<glyph unicode="v" horiz-adv-x="1575" d="M210 945l21 -147l21 -42l21 -42l21 -42l21 -84l21 -63l21 -63l21 -63l21 -63l21 -42l21 -42l21 -42l21 -42l42 -21l21 -42l42 -21l21 -63l21 -42h42h126l21 21l21 42l42 42v21l42 42v21l42 42v21l42 42v21l42 42l21 42l42 42v21l42 42v21l21 42l21 42l21 42l21 63l21 42 l42 42l21 21l21 42l21 84v21l-21 63l-21 42h-126l-42 -42l-21 -63l-21 -42l-21 -21l-42 -42l-21 -63l-21 -42l-21 -63l-21 -42l-21 -21l-42 -84l-21 -21l-21 -42l-21 -21l-21 -42l-21 -21l-42 -63l-21 -21l-21 -21l-42 21l-21 42l-21 21l-21 42l-21 42l-21 84l-21 63l-21 63 l-21 63l-21 63l-21 42l-21 42l-21 42l-21 42l-21 42l-21 21l-126 -21v-21z" />
<glyph unicode="w" horiz-adv-x="2352" d="M210 945l21 -210v21l42 -21v-42l21 -42l21 -42l21 -42l21 -42l42 -21v-42l21 -42l21 -42l21 -42l21 -42l42 -21l21 -42l42 -21l21 -42l42 -21v-42l42 -21v-42l63 -21l42 -21h42l63 21l21 42l42 42v42l21 42l21 42l21 63l21 63l21 63l21 42l42 42l21 21l21 -63l21 -63 l21 -63l42 -21v-42l21 -42l42 -21v-42l42 -21v-42l42 -21l21 -63l105 -21l42 -21h126l42 21l21 42l42 42v21l21 42l21 63l21 63l21 63l21 84l21 63l42 42l21 42l21 42l21 84l21 63l63 42l21 42v105l-21 42l-42 42h-84l-42 -21l-42 -42l-21 -21l-42 -42l-21 -42l-21 -63 l-21 -63l-21 -63l-21 -21l-42 -63v-21l-42 -105l-21 -84l-21 -63l-21 -63l-21 21l-42 42l-21 42l-42 63l-21 42l-21 21l-21 63l-21 42l-21 63l-21 63l-21 63l-21 63l-21 105l-21 42l-42 21h-105l-42 -21l-42 -42l-21 -42l-21 -63l-21 -63l-21 -63l-21 -84l-21 -42l-21 -21 l-42 -105l-21 -63l-21 -63h-21l-42 21l-21 42l-42 42l-21 42l-21 42l-21 42l-21 21l-21 42l-21 42l-21 21l-21 42l-21 42l-21 42l-21 21l-21 42l-42 42l-21 42l-63 21l-63 -21z" />
<glyph unicode="x" horiz-adv-x="1617" d="M210 966l21 -147v21l21 -63l63 -21l21 -42l42 -21l42 -21l42 -21l21 -42l63 -21l21 -42l42 -21l21 -21l-42 -63l-21 -21l-42 -63l-21 -21l-42 -42l-21 -21l-42 -21l-42 -42l-21 -21l-42 -42h-63l-21 -63l21 -42l21 -42l42 -21h126l21 21l63 42l21 21l63 42l42 21l21 21 l42 42l21 21l42 42l21 42l42 42h21l21 -42l21 -42l42 -21l21 -42h42l21 -63l63 -21l21 -21l63 -21v-21h21l21 -84l42 -21h105l42 21l21 42v84l-21 42l-21 42l-42 42l-21 42l-42 21l-21 21l-42 21l-42 21l-21 42l-42 21l-21 42l-42 21v42l42 42l21 21l42 42l21 21l42 42 l21 21l42 21l21 21l21 42l42 42l21 63v105l-21 42l-63 42h-42l-42 -21l-42 -42l-21 -21l-21 -42l-21 -42l-42 -21l-42 -42l-21 -21l-42 -42l-21 -21l-42 -42l-21 -21l-42 -42l-42 42l-42 21l-21 42l-42 21l-42 42l-42 21l-63 42l-42 21l-21 21l-42 21l-42 21l-42 42h-84z " />
<glyph unicode="y" horiz-adv-x="1512" d="M210 987l21 -189v21l21 -84l21 -42l21 -42l21 -42l42 -21v-42l42 -21v-42l42 -21l21 -63l42 -21l21 -42l42 -21l21 -42l42 -21l21 -42l42 -21l-42 -105l-21 -21l-42 -105l-21 -21l-42 -84l-21 -42l-21 -42l-21 -63l-21 -42l-21 -42l-21 -42l-21 -63v-105l42 -21l21 -42 l147 42l21 21l21 21v21v42l21 21l21 63l21 42l21 63l21 42l21 42l21 42l42 42l21 63l21 42l21 42l21 42l63 42l21 21l42 42v42l21 42l21 63l21 42l21 63l21 42l21 42l21 42l21 42l42 42l21 63l21 42l21 42v63l-21 42l-21 42h-126l-42 -42l-21 -21l-21 -42l-21 -21l-21 -42 l-21 -42l-21 -42l-21 -21l-21 -42l-21 -42l-21 -21l-21 -42l-21 -42l-21 -42h-21l-42 21l-21 42l-42 21l-21 42l-42 42l-21 42l-42 21l-21 42l-21 42l-21 21l-21 42l-21 21v21l21 42l-42 63l-21 42l-42 21l-126 21h-42v-21z" />
<glyph unicode="z" horiz-adv-x="1827" d="M210 1071l21 -105h21v-21h42h42h315l252 -21l126 -21l-42 -63l-21 -21l-42 -42l-21 -42l-21 -21l-21 -42l-21 -21l-21 -42l-21 -21l-21 -42l-21 -21l-42 -42l-21 -21l-42 -42l-21 -21l-42 -42l-42 -21l-42 -42l-21 -21l-42 -42l-21 -42v-126l42 -21l21 -42h63h105l273 21 l84 21h399l63 -21h42l63 21l42 21v21v126l-21 42l-42 21l-63 21l-42 21l-42 21h-105l-315 -21h-42l21 42l42 42l21 42l21 42l42 42l21 42l42 42l21 42l42 42l21 42l42 42l21 21l42 42l21 21l42 42l42 21l21 42v105l-21 42l-21 42l-630 21h-336l-168 -21l-42 -42l-21 -21z " />
<glyph unicode="{" horiz-adv-x="1281" d="M210 1050l21 -147v21l21 -21l147 -21h42l-21 -252v147l21 -231v63l21 -126l21 -42l42 -21l21 -63l63 -21l42 -21l42 -21h273l42 21l42 21l21 21v21l-21 42l-42 21l-63 42h-42l-189 42v-21l-21 42l-42 42l-21 84v63l21 105l84 42l105 21l21 63l21 42l-42 42l-21 42l-21 63 v21v84v441l42 21l189 21l21 21l-21 42l-42 42l-63 21h-189l-42 -21l-42 -42l-21 -42l-21 -84l-21 -525l-21 -21l-252 -21l-42 -21l-42 -21z" />
<glyph unicode="}" horiz-adv-x="1302" d="M210 126l21 -84l42 -21l63 -21h84l84 21l63 21l42 21l21 21l63 42l42 21l21 21l42 42l21 21l42 42v21l21 63l21 105v21l-21 105l-21 63l-21 63l-21 63l-21 63l-21 84v147l105 21l168 21l42 21v21v84l-21 42l-42 21l-21 21l-126 21l-84 21v42l21 84l21 105v168l-21 42 l-42 42l-63 21h-231l-42 -21l-42 -21l21 -105h21l21 21l126 -21h84l21 -21l-21 -42l-21 -84l-21 -105l-21 -63l-21 -84l-21 -84v-273l21 -126l21 -63l21 -63l21 -63l21 -84l21 -63v-63l-21 -63l-21 -21l-42 -42l-42 -21l-42 -42h-21l-42 -21l-63 -21l-42 -21l-42 -21 l-84 -21z" />
<glyph unicode="~" horiz-adv-x="1491" d="M210 1638l21 -126v21l42 -21h42l63 21l21 21l63 42l42 21v21l63 42l42 21h21l21 -42l42 -21l21 -42l42 -21l42 -21l21 -42h63h210l42 21l42 21l42 21l21 63l21 42l21 63l-21 63l-105 -21l-63 -21l-42 -21h-147l-42 21l-21 42l-42 21l-42 42l-42 21l-147 21h63l-105 -21 l-42 -21l-42 -21l-42 -42l-21 -21l-42 -42l-42 -21l-42 -42l-21 -21z" />
<glyph unicode="&#xad;" d="M210 1113l21 -105h21v-21h21l84 -21l168 -21l42 -21h63l63 21l105 21l63 21l63 21l84 21l210 21l21 42v84l-21 42l-42 21h-42l-210 -21h21l-84 -21l-63 -21l-84 -21l-84 -21h-42h-42l-294 21z" />
<glyph unicode="&#xb2;" horiz-adv-x="2121" d="M210 1617l21 -126v21l21 -42l63 -21l21 21l21 63l21 42l21 42l63 42l21 21l63 42l42 21l21 21l63 42l42 21l21 21l126 21h63l147 -21l42 -21l21 -42l42 -21l21 -42l42 -21v-42l21 -42l21 -63v-315l-21 -126l-21 -147l-21 -84l-21 -63l-21 -42l-21 -42l-21 -63l-21 -21 l-42 -63l-21 -21l-42 -21l-63 -21l-42 -21l-63 -21l-63 -21l-315 -21l-63 -21l-42 -42l-21 -42v-63l21 -63l42 -21l21 -42h84h63l105 21l105 21l105 21l231 21l189 21h336l147 -21h42l63 21l21 42v105l-21 42l-21 21l-42 21l-105 21l-378 21v21l21 42l21 42l21 42l21 42 l21 63l21 84l21 84l21 168l21 126v294l-21 105l-21 84l-21 42l-21 42l-42 42l-21 42l-21 42l-42 21l-21 42l-42 21l-42 21l-21 21l-42 21l-126 21h-315l-42 -21l-42 -21l-42 -21l-42 -42l-21 -21l-42 -21l-42 -42l-21 -21l-42 -42h-21l-42 -42l-21 -21l-42 -42l-21 -42z" />
<glyph unicode="&#xb3;" horiz-adv-x="1680" d="M210 1974l21 -126h21v-21l168 21l63 21l84 21h399l105 -21l42 -21l42 -21l21 -42v-168l-21 -42l-21 -42l-21 -42l-21 -21l-42 -63l-21 -21l-42 -63l-42 -21l-42 -42l-21 -21l-42 -21l-42 -42h-21l-42 -21l-63 -21l-42 -42l-21 -21l-21 -42v-84l42 -21l21 -42h462l63 -21 l42 -21v-42v-105l-21 -84l-21 -42l-21 -42l-21 -42l-21 -21l-42 -63l-21 -21l-42 -42l-21 -21h-294l-105 21l-42 21l-42 21l-21 42l-21 21l-105 -21l-21 -21l-42 -84v-63l21 -42l42 -21l21 -42l42 -21l42 -21l42 -21l63 -21l168 -21h252l84 21l42 21l21 21l63 42l21 21 l42 42l21 21l21 42l42 42v21l42 42v21l21 42l21 42l21 63l21 84v231l-21 63l-21 42l-42 42l-21 42l-42 21l-42 21l-42 21l-84 21v21l42 42l21 21l42 42l21 42l42 42v21l21 42l21 42l21 42l21 42l21 84v168l-21 63l-21 42l-21 42l-21 42l-42 21l-42 42l-42 21l-42 21l-63 21 l-126 21h-378l-126 -21l-84 -21l-42 -21l-42 -21l-63 -21z" />
<glyph unicode="&#xb9;" horiz-adv-x="1680" d="M210 315l21 -63l21 -42l63 -21h84l336 -21l42 -21l42 -21h42l63 21l21 21l378 -21h-105h168l42 21l21 21l21 63v42l-21 63l-21 42l-42 21h-126h-63l-168 21l-21 84l-21 126l-21 105l-21 147l-21 231l-21 273l-21 168l-21 126l-21 105v147v84l-21 42l-21 42l-21 42h-126 l-42 -42l-21 -42v-63l21 -63l-42 -63l-42 -21l-42 -42h-21l-42 -21l-42 -21l-42 -42l-42 -21l-42 -63v-84l42 -21h84l21 21l84 42h21l21 21l84 42h42v-126l21 -168l21 -273l21 -231l21 -147l21 -105l21 -126v-84l-63 21l-84 21h-252l-63 -21l-42 -21l-42 -42z" />
<glyph unicode="&#xba;" horiz-adv-x="1533" d="M210 672l21 -294v63l21 -126l21 -42l21 -42l42 -21l21 -63l63 -21l21 -42h42l63 -21l63 -21l105 -21h126l84 21l63 21l21 21l63 42l21 21l63 42l21 42l42 42v21l21 42l21 42l21 42l21 63l21 126v42l-21 126l-21 42l-21 42l-21 42l-21 42l-42 21l-21 42l-42 21l-21 42 l-42 21l-42 42l-42 21h-42l-189 -21l-42 -21l-42 -42l-126 -21l-42 -21l-42 -21l-42 -42l-21 -21l-42 -42l-21 -42l-21 -21l-42 -63l-21 -42zM861 273h-210l-42 21l-63 21l-42 21l-21 42l-21 42l-21 63v147l21 42l42 42v21l42 42l21 21l42 42l63 21l63 21l63 21l63 21h21 l21 -42l42 -21l21 -42h42l21 -42l21 -42l21 -42v-126l-21 -63l-21 -42l-21 -42l-21 -42l-21 -21l-42 -42l-42 -21z" />
<glyph unicode="&#xc0;" horiz-adv-x="2268" d="M986 2264v800h375v-800h-375zM1048 2327h250v675h-250v-675zM210 231l21 -168h21v-21l105 21l21 21l42 42l21 42l21 42l21 42l42 42l21 42l21 42l21 42l21 42l42 42l21 63l21 42l21 42l21 42l21 63l21 42l21 42l21 63l21 42h63l63 -21l126 -21l84 -21l252 -21l63 -21 l63 -21l21 -63l21 -63l21 -42l21 -42l21 -63l21 -42l21 -42l21 -42l21 -42l21 -42l21 -63l21 -84l21 -42l63 -21h126l21 21l21 42v105l-21 63l-21 63l-21 42l-21 42l-21 42l-21 42l-21 63l-21 42l-21 42l-21 42l-21 63l-21 42l-21 42l-21 42l-21 42l-21 42l-21 63l-21 42 l-21 42l-21 42l-21 63l-21 63l-21 63l-21 42l-21 63l-21 63l-21 63l-21 63l-21 42l-21 63l-21 42l-21 42l-21 42l-21 42l-42 63l-21 42l-126 21h63l-105 -21l-21 -42l-21 -42l-21 -63l-21 -42l-21 -84l-21 -42l-21 -42l-21 -63l-21 -42l-21 -42l-21 -42l-21 -42l-21 -21 l-42 -84l-21 -21l-21 -42l-21 -42l-21 -21l-21 -42l-21 -42l-21 -42l-21 -63l-21 -42l-21 -42l-21 -42l-21 -63l-21 -42l-21 -42l-21 -63l-21 -21l-42 -84v-21l-42 -63l-21 -42l-21 -42l-21 -42l-21 -21l-21 -42l-21 -42l-21 -42zM1239 1659l21 -126l21 -63l21 -63l21 -63 l21 -42l21 -63l21 -63l21 -63v-21l-462 42l21 63l42 42v21l21 42l42 42v21l21 42l21 42l21 42l21 42l21 42l21 42l21 42h21z" />
<glyph unicode="&#xc2;" horiz-adv-x="2268" d="M681 2390l21 -63l21 -42l147 42l21 21l21 21l21 21l21 21v21l21 21l21 21l21 42l42 42l21 21l42 -21l21 -42l42 -21l21 -42l63 -21l21 -42l63 -21l42 -21l21 -42l63 -21l21 -21l105 42l21 21l21 21v21l-21 42v21l-21 21l-42 42l-42 21l-42 42l-42 21l-42 21l-42 42 l-42 21l-42 42l-42 42v42l-42 63l-21 42h-84l-42 -21l-42 -63l-21 -21l-42 -42l-21 -42l-21 -21l-42 -63l-21 -21l-42 -63l-21 -21l-42 -42l-21 -42zM210 231l21 -168h21v-21l105 21l21 21l42 42l21 42l21 42l21 42l42 42l21 42l21 42l21 42l21 42l42 42l21 63l21 42l21 42 l21 42l21 63l21 42l21 42l21 63l21 42h63l63 -21l126 -21l84 -21l252 -21l63 -21l63 -21l21 -63l21 -63l21 -42l21 -42l21 -63l21 -42l21 -42l21 -42l21 -42l21 -42l21 -63l21 -84l21 -42l63 -21h126l21 21l21 42v105l-21 63l-21 63l-21 42l-21 42l-21 42l-21 42l-21 63 l-21 42l-21 42l-21 42l-21 63l-21 42l-21 42l-21 42l-21 42l-21 42l-21 63l-21 42l-21 42l-21 42l-21 63l-21 63l-21 63l-21 42l-21 63l-21 63l-21 63l-21 63l-21 42l-21 63l-21 42l-21 42l-21 42l-21 42l-42 63l-21 42l-126 21h63l-105 -21l-21 -42l-21 -42l-21 -63 l-21 -42l-21 -84l-21 -42l-21 -42l-21 -63l-21 -42l-21 -42l-21 -42l-21 -42l-21 -21l-42 -84l-21 -21l-21 -42l-21 -42l-21 -21l-21 -42l-21 -42l-21 -42l-21 -63l-21 -42l-21 -42l-21 -42l-21 -63l-21 -42l-21 -42l-21 -63l-21 -21l-42 -84v-21l-42 -63l-21 -42l-21 -42 l-21 -42l-21 -21l-21 -42l-21 -42l-21 -42zM1239 1659l21 -126l21 -63l21 -63l21 -63l21 -42l21 -63l21 -63l21 -63v-21l-462 42l21 63l42 42v21l21 42l42 42v21l21 42l21 42l21 42l21 42l21 42l21 42l21 42h21z" />
<glyph unicode="&#xc3;" horiz-adv-x="2268" d="M623 2390l21 -126v21l42 -21h42l63 21l21 21l63 42l42 21v21l63 42l42 21h21l21 -42l42 -21l21 -42l42 -21l42 -21l21 -42h63h210l42 21l42 21l42 21l21 63l21 42l21 63l-21 63l-105 -21l-63 -21l-42 -21h-147l-42 21l-21 42l-42 21l-42 42l-42 21l-147 21h63l-105 -21 l-42 -21l-42 -21l-42 -42l-21 -21l-42 -42l-42 -21l-42 -42l-21 -21zM210 231l21 -168h21v-21l105 21l21 21l42 42l21 42l21 42l21 42l42 42l21 42l21 42l21 42l21 42l42 42l21 63l21 42l21 42l21 42l21 63l21 42l21 42l21 63l21 42h63l63 -21l126 -21l84 -21l252 -21 l63 -21l63 -21l21 -63l21 -63l21 -42l21 -42l21 -63l21 -42l21 -42l21 -42l21 -42l21 -42l21 -63l21 -84l21 -42l63 -21h126l21 21l21 42v105l-21 63l-21 63l-21 42l-21 42l-21 42l-21 42l-21 63l-21 42l-21 42l-21 42l-21 63l-21 42l-21 42l-21 42l-21 42l-21 42l-21 63 l-21 42l-21 42l-21 42l-21 63l-21 63l-21 63l-21 42l-21 63l-21 63l-21 63l-21 63l-21 42l-21 63l-21 42l-21 42l-21 42l-21 42l-42 63l-21 42l-126 21h63l-105 -21l-21 -42l-21 -42l-21 -63l-21 -42l-21 -84l-21 -42l-21 -42l-21 -63l-21 -42l-21 -42l-21 -42l-21 -42 l-21 -21l-42 -84l-21 -21l-21 -42l-21 -42l-21 -21l-21 -42l-21 -42l-21 -42l-21 -63l-21 -42l-21 -42l-21 -42l-21 -63l-21 -42l-21 -42l-21 -63l-21 -21l-42 -84v-21l-42 -63l-21 -42l-21 -42l-21 -42l-21 -21l-21 -42l-21 -42l-21 -42zM1239 1659l21 -126l21 -63l21 -63 l21 -63l21 -42l21 -63l21 -63l21 -63v-21l-462 42l21 63l42 42v21l21 42l42 42v21l21 42l21 42l21 42l21 42l21 42l21 42l21 42h21z" />
<glyph unicode="&#xc8;" horiz-adv-x="1659" d="M1130 2264v800h375v-800h-375zM1192 2327h250v675h-250v-675zM210 1974l21 -672v126l21 -294l21 -21l21 -483v210l21 -336v105l21 -231l21 -21l21 -273h21v-21l21 -21l63 -21l63 21h21l21 -21l126 -21h63h147l273 21l84 21l42 21v21l21 42v21l-21 63l-21 42l-42 21h-84 l-252 -21h-147l-105 21l-63 21l-21 84l-21 126l-21 126v231h126h168l84 21l105 21h105h42l63 21l21 21v126l-21 42l-21 21l-63 21h-63l-147 -21l-63 -21l-84 -21h-189l-84 21l-21 21l-21 189l-21 105l-21 210v21l21 105l147 21l84 21h252h105h42l168 42l-42 -21l105 42 l42 21l21 21l42 21v84l21 -21l-42 42l-63 42h-21l-105 -21l-147 -21h-84l-147 21h-105l-126 -21l-84 -21h-84l-63 21h-84l-42 -21zM546 882h-21h21z" />
<glyph unicode="&#xca;" horiz-adv-x="1659" d="M824 2390l21 -63l21 -42l147 42l21 21l21 21l21 21l21 21v21l21 21l21 21l21 42l42 42l21 21l42 -21l21 -42l42 -21l21 -42l63 -21l21 -42l63 -21l42 -21l21 -42l63 -21l21 -21l105 42l21 21l21 21v21l-21 42v21l-21 21l-42 42l-42 21l-42 42l-42 21l-42 21l-42 42 l-42 21l-42 42l-42 42v42l-42 63l-21 42h-84l-42 -21l-42 -63l-21 -21l-42 -42l-21 -42l-21 -21l-42 -63l-21 -21l-42 -63l-21 -21l-42 -42l-21 -42zM210 1974l21 -672v126l21 -294l21 -21l21 -483v210l21 -336v105l21 -231l21 -21l21 -273h21v-21l21 -21l63 -21l63 21h21 l21 -21l126 -21h63h147l273 21l84 21l42 21v21l21 42v21l-21 63l-21 42l-42 21h-84l-252 -21h-147l-105 21l-63 21l-21 84l-21 126l-21 126v231h126h168l84 21l105 21h105h42l63 21l21 21v126l-21 42l-21 21l-63 21h-63l-147 -21l-63 -21l-84 -21h-189l-84 21l-21 21 l-21 189l-21 105l-21 210v21l21 105l147 21l84 21h252h105h42l168 42l-42 -21l105 42l42 21l21 21l42 21v84l21 -21l-42 42l-63 42h-21l-105 -21l-147 -21h-84l-147 21h-105l-126 -21l-84 -21h-84l-63 21h-84l-42 -21zM546 882h-21h21z" />
<glyph unicode="&#xcc;" horiz-adv-x="1869" d="M522 2264v800h375v-800h-375zM584 2327h250v675h-250v-675zM210 1869l21 -126v21l42 -21l168 -21l21 -42l63 -21h105h210h42l21 -525l21 -21v-546l21 294l-42 -525l21 210l-42 -210l-252 -21l-42 -21l-21 -21l-21 -63l21 -105h21v-21h21l126 -21h42h252h105h42h357l21 21 l42 42v63l-21 63l-21 42l-147 21l-252 21v168l21 42l-42 651l21 -231l-42 546v42l21 105h21l63 21l336 21h21h21l63 42v21v84l-21 42l-42 42l-147 21h-42l-672 21l-42 -21l-189 -21l-189 -21l-84 -21z" />
<glyph unicode="&#xce;" horiz-adv-x="1869" d="M216 2390l21 -63l21 -42l147 42l21 21l21 21l21 21l21 21v21l21 21l21 21l21 42l42 42l21 21l42 -21l21 -42l42 -21l21 -42l63 -21l21 -42l63 -21l42 -21l21 -42l63 -21l21 -21l105 42l21 21l21 21v21l-21 42v21l-21 21l-42 42l-42 21l-42 42l-42 21l-42 21l-42 42 l-42 21l-42 42l-42 42v42l-42 63l-21 42h-84l-42 -21l-42 -63l-21 -21l-42 -42l-21 -42l-21 -21l-42 -63l-21 -21l-42 -63l-21 -21l-42 -42l-21 -42zM210 1869l21 -126v21l42 -21l168 -21l21 -42l63 -21h105h210h42l21 -525l21 -21v-546l21 294l-42 -525l21 210l-42 -210 l-252 -21l-42 -21l-21 -21l-21 -63l21 -105h21v-21h21l126 -21h42h252h105h42h357l21 21l42 42v63l-21 63l-21 42l-147 21l-252 21v168l21 42l-42 651l21 -231l-42 546v42l21 105h21l63 21l336 21h21h21l63 42v21v84l-21 42l-42 42l-147 21h-42l-672 21l-42 -21l-189 -21 l-189 -21l-84 -21z" />
<glyph unicode="&#xd1;" horiz-adv-x="2268" d="M-215 2390l21 -126v21l42 -21h42l63 21l21 21l63 42l42 21v21l63 42l42 21h21l21 -42l42 -21l21 -42l42 -21l42 -21l21 -42h63h210l42 21l42 21l42 21l21 63l21 42l21 63l-21 63l-105 -21l-63 -21l-42 -21h-147l-42 21l-21 42l-42 21l-42 42l-42 21l-147 21h63l-105 -21 l-42 -21l-42 -21l-42 -42l-21 -21l-42 -42l-42 -21l-42 -42l-21 -21zM210 2037l21 -483v105l21 -231l21 -21v-714l21 378l-21 -672l21 -21l21 -294v63l21 -105l42 -21h105l21 42l21 777l21 42l-42 567v42h21l21 -42l42 -21l21 -63l42 -21l21 -42l42 -21l21 -42l42 -21 l21 -42l63 -21l21 -42l42 -21v-42l42 -21l21 -42l42 -21l21 -42l42 -21l21 -63l42 -21l21 -42l42 -21l21 -63l42 -21l21 -42l42 -21l21 -63l42 -21l21 -42l21 -42l21 -42l42 -21l21 -63l42 -21l21 -63l42 -21l21 -63l42 -21l21 -63h42l21 -42l42 -21l21 -42h42h84l42 21 l21 21l21 42v63l-21 84l-21 168l-21 231l-21 609l-21 189l-21 147l-21 84l-21 126l-21 105l-21 84l-21 42l-21 21l-42 21h-105l-42 -42l-21 -42v-105l21 -105l21 -126l21 -105l21 -126l21 -210v-609l-21 42l-42 42l-21 42l-21 42l-42 21l-21 42l-42 42l-21 42l-42 21l-21 42 l-42 42l-21 42l-42 21l-21 42l-21 42l-42 21l-21 42l-42 21l-21 42l-42 21l-21 42l-42 21l-21 42l-42 21l-21 42l-42 21l-21 42l-42 21l-21 42l-42 21l-21 42l-42 21l-21 42l-42 42l-21 42l-42 21l-21 42l-42 42l-21 42l-21 63l-21 63l-21 42l-21 42l-63 21h-21l-63 -21 l-42 -42zM1743 546h-21h21z" />
<glyph unicode="&#xd2;" horiz-adv-x="2016" d="M799 2264v800h375v-800h-375zM861 2327h250v675h-250v-675zM210 1071l21 -336v126l21 -210v63l21 -105l21 -21l21 -84l42 -21v-42l42 -21l21 -42l42 -21l21 -42l42 -21l42 -21l21 -42l63 -21l21 -42l63 -21l42 -21l42 -21l42 -21l63 -21l84 -21h231l126 21l63 21l42 21 l21 21l42 42v21l21 42l42 42v21l21 42l21 42l42 42v21l21 42l21 42l21 42l21 63l21 84l21 84v441l-21 105l-21 63l-21 42l-21 42l-21 42l-21 42l-21 42l-21 42l-42 42l-21 42l-42 21l-21 42l-42 21l-42 21l-21 21l-84 21l-63 21l-21 21l-42 84v21l-21 21l-21 42l-42 21 l-63 21h-105l-84 -21l-42 -21l-42 -21l-42 -21l-42 -42l-21 -21l-42 -42l-21 -21l-42 -42l-21 -21l-42 -42l-21 -42l-21 -21l-21 -42l-21 -42l-21 -21l-21 -42l-21 -42l-21 -42l-21 -42l-21 -63l-21 -42l-21 -84l-21 -84zM1029 1911l42 -42l-42 -42v-126l42 -21l21 -42 l231 -21h-42l63 -21l21 -42l42 -21l21 -42l21 -42l42 -21v-42l21 -42l21 -42l21 -105v-357l-21 -84l-21 -84l-21 -42l-21 -42l-21 -42l-21 -21l-42 -84l-21 -42l-21 -42l-21 -21l-21 -42l-252 -21l-105 42l-42 21l-42 21l-42 21l-42 42l-42 21l-42 42l-42 21l-21 42l-42 21 l-21 42l-42 21l-21 42l-21 63l-21 84v336l21 84l21 84l21 42l21 63l21 42l21 42l21 42l42 42l21 63l42 42l21 21l21 42l42 42l21 21l63 42l21 21l105 21h21z" />
<glyph unicode="&#xd4;" horiz-adv-x="2016" d="M494 2390l21 -63l21 -42l147 42l21 21l21 21l21 21l21 21v21l21 21l21 21l21 42l42 42l21 21l42 -21l21 -42l42 -21l21 -42l63 -21l21 -42l63 -21l42 -21l21 -42l63 -21l21 -21l105 42l21 21l21 21v21l-21 42v21l-21 21l-42 42l-42 21l-42 42l-42 21l-42 21l-42 42 l-42 21l-42 42l-42 42v42l-42 63l-21 42h-84l-42 -21l-42 -63l-21 -21l-42 -42l-21 -42l-21 -21l-42 -63l-21 -21l-42 -63l-21 -21l-42 -42l-21 -42zM210 1071l21 -336v126l21 -210v63l21 -105l21 -21l21 -84l42 -21v-42l42 -21l21 -42l42 -21l21 -42l42 -21l42 -21l21 -42 l63 -21l21 -42l63 -21l42 -21l42 -21l42 -21l63 -21l84 -21h231l126 21l63 21l42 21l21 21l42 42v21l21 42l42 42v21l21 42l21 42l42 42v21l21 42l21 42l21 42l21 63l21 84l21 84v441l-21 105l-21 63l-21 42l-21 42l-21 42l-21 42l-21 42l-21 42l-42 42l-21 42l-42 21 l-21 42l-42 21l-42 21l-21 21l-84 21l-63 21l-21 21l-42 84v21l-21 21l-21 42l-42 21l-63 21h-105l-84 -21l-42 -21l-42 -21l-42 -21l-42 -42l-21 -21l-42 -42l-21 -21l-42 -42l-21 -21l-42 -42l-21 -42l-21 -21l-21 -42l-21 -42l-21 -21l-21 -42l-21 -42l-21 -42l-21 -42 l-21 -63l-21 -42l-21 -84l-21 -84zM1029 1911l42 -42l-42 -42v-126l42 -21l21 -42l231 -21h-42l63 -21l21 -42l42 -21l21 -42l21 -42l42 -21v-42l21 -42l21 -42l21 -105v-357l-21 -84l-21 -84l-21 -42l-21 -42l-21 -42l-21 -21l-42 -84l-21 -42l-21 -42l-21 -21l-21 -42 l-252 -21l-105 42l-42 21l-42 21l-42 21l-42 42l-42 21l-42 42l-42 21l-21 42l-42 21l-21 42l-42 21l-21 42l-21 63l-21 84v336l21 84l21 84l21 42l21 63l21 42l21 42l21 42l42 42l21 63l42 42l21 21l21 42l42 42l21 21l63 42l21 21l105 21h21z" />
<glyph unicode="&#xd5;" horiz-adv-x="2016" d="M436 2390l21 -126v21l42 -21h42l63 21l21 21l63 42l42 21v21l63 42l42 21h21l21 -42l42 -21l21 -42l42 -21l42 -21l21 -42h63h210l42 21l42 21l42 21l21 63l21 42l21 63l-21 63l-105 -21l-63 -21l-42 -21h-147l-42 21l-21 42l-42 21l-42 42l-42 21l-147 21h63l-105 -21 l-42 -21l-42 -21l-42 -42l-21 -21l-42 -42l-42 -21l-42 -42l-21 -21zM210 1071l21 -336v126l21 -210v63l21 -105l21 -21l21 -84l42 -21v-42l42 -21l21 -42l42 -21l21 -42l42 -21l42 -21l21 -42l63 -21l21 -42l63 -21l42 -21l42 -21l42 -21l63 -21l84 -21h231l126 21l63 21 l42 21l21 21l42 42v21l21 42l42 42v21l21 42l21 42l42 42v21l21 42l21 42l21 42l21 63l21 84l21 84v441l-21 105l-21 63l-21 42l-21 42l-21 42l-21 42l-21 42l-21 42l-42 42l-21 42l-42 21l-21 42l-42 21l-42 21l-21 21l-84 21l-63 21l-21 21l-42 84v21l-21 21l-21 42 l-42 21l-63 21h-105l-84 -21l-42 -21l-42 -21l-42 -21l-42 -42l-21 -21l-42 -42l-21 -21l-42 -42l-21 -21l-42 -42l-21 -42l-21 -21l-21 -42l-21 -42l-21 -21l-21 -42l-21 -42l-21 -42l-21 -42l-21 -63l-21 -42l-21 -84l-21 -84zM1029 1911l42 -42l-42 -42v-126l42 -21 l21 -42l231 -21h-42l63 -21l21 -42l42 -21l21 -42l21 -42l42 -21v-42l21 -42l21 -42l21 -105v-357l-21 -84l-21 -84l-21 -42l-21 -42l-21 -42l-21 -21l-42 -84l-21 -42l-21 -42l-21 -21l-21 -42l-252 -21l-105 42l-42 21l-42 21l-42 21l-42 42l-42 21l-42 42l-42 21l-21 42 l-42 21l-21 42l-42 21l-21 42l-21 63l-21 84v336l21 84l21 84l21 42l21 63l21 42l21 42l21 42l42 42l21 63l42 42l21 21l21 42l42 42l21 21l63 42l21 21l105 21h21z" />
<glyph unicode="&#xd9;" horiz-adv-x="1806" d="M1200 2264v800h375v-800h-375zM1262 2327h250v675h-250v-675zM210 1743l21 -630l21 -63l21 -378l21 -189l21 -168l21 -21l21 -84l42 -21v-42l63 -21l21 -42l63 -21l21 -42l63 -21l42 -21l42 -21l42 -21l63 -21h231l42 21l21 21l42 21l21 21l21 42l42 42l21 21l42 42 l21 21l21 42l42 42l21 42l21 42l42 42l21 84l21 42l21 63l21 42l21 63l21 84v294v357l-21 63l-21 126l-21 126l-21 231l-21 42l-21 42h-126l-42 -21l-21 -42v-105l21 -42l21 -273l21 -21l21 -525l21 -21l-42 -294l21 63l-42 -105v-21l-42 -105l-21 -42l-21 -42l-21 -42 l-21 -21l-21 -42l-21 -21l-42 -42l-21 -21l-42 -42l-21 -21l-21 -42l-42 -21h-105l-42 21l-42 21l-42 21l-42 21l-42 21l-21 21l-42 21l-21 21l-42 42l-21 63l-21 126l-21 357l-21 189l-21 336v420v126l-42 42h-84l-42 -42l-21 -63z" />
<glyph unicode="&#xdb;" horiz-adv-x="1806" d="M894 2390l21 -63l21 -42l147 42l21 21l21 21l21 21l21 21v21l21 21l21 21l21 42l42 42l21 21l42 -21l21 -42l42 -21l21 -42l63 -21l21 -42l63 -21l42 -21l21 -42l63 -21l21 -21l105 42l21 21l21 21v21l-21 42v21l-21 21l-42 42l-42 21l-42 42l-42 21l-42 21l-42 42 l-42 21l-42 42l-42 42v42l-42 63l-21 42h-84l-42 -21l-42 -63l-21 -21l-42 -42l-21 -42l-21 -21l-42 -63l-21 -21l-42 -63l-21 -21l-42 -42l-21 -42zM210 1743l21 -630l21 -63l21 -378l21 -189l21 -168l21 -21l21 -84l42 -21v-42l63 -21l21 -42l63 -21l21 -42l63 -21l42 -21 l42 -21l42 -21l63 -21h231l42 21l21 21l42 21l21 21l21 42l42 42l21 21l42 42l21 21l21 42l42 42l21 42l21 42l42 42l21 84l21 42l21 63l21 42l21 63l21 84v294v357l-21 63l-21 126l-21 126l-21 231l-21 42l-21 42h-126l-42 -21l-21 -42v-105l21 -42l21 -273l21 -21l21 -525 l21 -21l-42 -294l21 63l-42 -105v-21l-42 -105l-21 -42l-21 -42l-21 -42l-21 -21l-21 -42l-21 -21l-42 -42l-21 -21l-42 -42l-21 -21l-21 -42l-42 -21h-105l-42 21l-42 21l-42 21l-42 21l-42 21l-21 21l-42 21l-21 21l-42 42l-21 63l-21 126l-21 357l-21 189l-21 336v420 v126l-42 42h-84l-42 -42l-21 -63z" />
<glyph unicode="&#xec;" horiz-adv-x="714" d="M138 1739v800h375v-800h-375zM200 1802h250v675h-250v-675zM210 1533l21 -126h21v-21h21l42 -21h42l42 21l21 21l63 42l21 84l-21 21l-21 42l-63 21h-126l-42 -42zM231 987l21 -1008v42l21 -42l63 -21l63 21l21 21l21 84v63v357l-42 483l-21 42h-105z" />
<glyph unicode="&#xee;" horiz-adv-x="714" d="M-168 1865l21 -63l21 -42l147 42l21 21l21 21l21 21l21 21v21l21 21l21 21l21 42l42 42l21 21l42 -21l21 -42l42 -21l21 -42l63 -21l21 -42l63 -21l42 -21l21 -42l63 -21l21 -21l105 42l21 21l21 21v21l-21 42v21l-21 21l-42 42l-42 21l-42 42l-42 21l-42 21l-42 42 l-42 21l-42 42l-42 42v42l-42 63l-21 42h-84l-42 -21l-42 -63l-21 -21l-42 -42l-21 -42l-21 -21l-42 -63l-21 -21l-42 -63l-21 -21l-42 -42l-21 -42zM210 1533l21 -126h21v-21h21l42 -21h42l42 21l21 21l63 42l21 84l-21 21l-21 42l-63 21h-126l-42 -42zM231 987l21 -1008 v42l21 -42l63 -21l63 21l21 21l21 84v63v357l-42 483l-21 42h-105z" />
<glyph unicode="&#xf1;" d="M104 1403l21 -126v21l42 -21h42l63 21l21 21l63 42l42 21v21l63 42l42 21h21l21 -42l42 -21l21 -42l42 -21l42 -21l21 -42h63h210l42 21l42 21l42 21l21 63l21 42l21 63l-21 63l-105 -21l-63 -21l-42 -21h-147l-42 21l-21 42l-42 21l-42 42l-42 21l-147 21h63l-105 -21 l-42 -21l-42 -21l-42 -42l-21 -21l-42 -42l-42 -21l-42 -42l-21 -21zM210 546l21 -462l21 -42l21 -42l63 -21h84l21 21l42 42v42v147v231l21 63l21 42l21 42l21 42l42 42l42 21l42 21h63l42 -21l42 -21l21 -42l42 -21v-42l42 -21v-42l42 -21v-42l21 -63v-273v-84l21 -42 l42 -21h105l21 21l42 42v42v378l-21 63l-21 42l-21 42l-21 42l-21 42l-42 42l-21 42l-21 42l-42 21l-21 42l-42 21l-42 21l-42 21l-63 21h-168l-42 -21l-42 -21l-42 -21l-42 -21h-42l-42 21h-84l-42 -42l-21 -21z" />
<glyph unicode="&#xf2;" horiz-adv-x="1533" d="M747 1277v800h375v-800h-375zM809 1340h250v675h-250v-675zM210 672l21 -294v63l21 -126l21 -42l21 -42l42 -21l21 -63l63 -21l21 -42h42l63 -21l63 -21l105 -21h126l84 21l63 21l21 21l63 42l21 21l63 42l21 42l42 42v21l21 42l21 42l21 42l21 63l21 126v42l-21 126 l-21 42l-21 42l-21 42l-21 42l-42 21l-21 42l-42 21l-21 42l-42 21l-42 42l-42 21h-42l-189 -21l-42 -21l-42 -42l-126 -21l-42 -21l-42 -21l-42 -42l-21 -21l-42 -42l-21 -42l-21 -21l-42 -63l-21 -42zM861 273h-210l-42 21l-63 21l-42 21l-21 42l-21 42l-21 63v147l21 42 l42 42v21l42 42l21 21l42 42l63 21l63 21l63 21l63 21h21l21 -42l42 -21l21 -42h42l21 -42l21 -42l21 -42v-126l-21 -63l-21 -42l-21 -42l-21 -42l-21 -21l-42 -42l-42 -21z" />
<glyph unicode="&#xf4;" horiz-adv-x="1533" d="M441 1403l21 -63l21 -42l147 42l21 21l21 21l21 21l21 21v21l21 21l21 21l21 42l42 42l21 21l42 -21l21 -42l42 -21l21 -42l63 -21l21 -42l63 -21l42 -21l21 -42l63 -21l21 -21l105 42l21 21l21 21v21l-21 42v21l-21 21l-42 42l-42 21l-42 42l-42 21l-42 21l-42 42 l-42 21l-42 42l-42 42v42l-42 63l-21 42h-84l-42 -21l-42 -63l-21 -21l-42 -42l-21 -42l-21 -21l-42 -63l-21 -21l-42 -63l-21 -21l-42 -42l-21 -42zM210 672l21 -294v63l21 -126l21 -42l21 -42l42 -21l21 -63l63 -21l21 -42h42l63 -21l63 -21l105 -21h126l84 21l63 21 l21 21l63 42l21 21l63 42l21 42l42 42v21l21 42l21 42l21 42l21 63l21 126v42l-21 126l-21 42l-21 42l-21 42l-21 42l-42 21l-21 42l-42 21l-21 42l-42 21l-42 42l-42 21h-42l-189 -21l-42 -21l-42 -42l-126 -21l-42 -21l-42 -21l-42 -42l-21 -21l-42 -42l-21 -42l-21 -21 l-42 -63l-21 -42zM861 273h-210l-42 21l-63 21l-42 21l-21 42l-21 42l-21 63v147l21 42l42 42v21l42 42l21 21l42 42l63 21l63 21l63 21l63 21h21l21 -42l42 -21l21 -42h42l21 -42l21 -42l21 -42v-126l-21 -63l-21 -42l-21 -42l-21 -42l-21 -21l-42 -42l-42 -21z" />
<glyph unicode="&#xf5;" horiz-adv-x="1533" d="M383 1403l21 -126v21l42 -21h42l63 21l21 21l63 42l42 21v21l63 42l42 21h21l21 -42l42 -21l21 -42l42 -21l42 -21l21 -42h63h210l42 21l42 21l42 21l21 63l21 42l21 63l-21 63l-105 -21l-63 -21l-42 -21h-147l-42 21l-21 42l-42 21l-42 42l-42 21l-147 21h63l-105 -21 l-42 -21l-42 -21l-42 -42l-21 -21l-42 -42l-42 -21l-42 -42l-21 -21zM210 672l21 -294v63l21 -126l21 -42l21 -42l42 -21l21 -63l63 -21l21 -42h42l63 -21l63 -21l105 -21h126l84 21l63 21l21 21l63 42l21 21l63 42l21 42l42 42v21l21 42l21 42l21 42l21 63l21 126v42 l-21 126l-21 42l-21 42l-21 42l-21 42l-42 21l-21 42l-42 21l-21 42l-42 21l-42 42l-42 21h-42l-189 -21l-42 -21l-42 -42l-126 -21l-42 -21l-42 -21l-42 -42l-21 -21l-42 -42l-21 -42l-21 -21l-42 -63l-21 -42zM861 273h-210l-42 21l-63 21l-42 21l-21 42l-21 42l-21 63 v147l21 42l42 42v21l42 42l21 21l42 42l63 21l63 21l63 21l63 21h21l21 -42l42 -21l21 -42h42l21 -42l21 -42l21 -42v-126l-21 -63l-21 -42l-21 -42l-21 -42l-21 -21l-42 -42l-42 -21z" />
<glyph unicode="&#xf9;" d="M524 1277v800h375v-800h-375zM586 1340h250v675h-250v-675zM210 945l21 -399v147l21 -231v63l21 -147l21 -63l21 -42l42 -21l21 -63l42 -21l42 -21l21 -42h42l84 -21h168l42 21l42 21l21 21l21 42l42 42l21 42l42 21l21 -126l21 -42l42 -21h105l42 21v42v42l-21 63 l-21 126l-21 105l-21 147v21l21 42l-21 273l21 42l-42 84v21h-21l-105 -21l-21 -21v-21l-21 -126l-21 -63v-252l-21 -42l-21 -42l-21 -42l-21 -42l-21 -42l-21 -42l-21 -21l-42 -63l-21 -21h-147l-42 21l-42 21l-21 42l-42 63v42l-42 105l-21 126v294l21 42v42l-21 42 l-21 21h-42l-42 -21l-21 -42l-21 -42z" />
<glyph unicode="&#xfb;" d="M219 1403l21 -63l21 -42l147 42l21 21l21 21l21 21l21 21v21l21 21l21 21l21 42l42 42l21 21l42 -21l21 -42l42 -21l21 -42l63 -21l21 -42l63 -21l42 -21l21 -42l63 -21l21 -21l105 42l21 21l21 21v21l-21 42v21l-21 21l-42 42l-42 21l-42 42l-42 21l-42 21l-42 42 l-42 21l-42 42l-42 42v42l-42 63l-21 42h-84l-42 -21l-42 -63l-21 -21l-42 -42l-21 -42l-21 -21l-42 -63l-21 -21l-42 -63l-21 -21l-42 -42l-21 -42zM210 945l21 -399v147l21 -231v63l21 -147l21 -63l21 -42l42 -21l21 -63l42 -21l42 -21l21 -42h42l84 -21h168l42 21l42 21 l21 21l21 42l42 42l21 42l42 21l21 -126l21 -42l42 -21h105l42 21v42v42l-21 63l-21 126l-21 105l-21 147v21l21 42l-21 273l21 42l-42 84v21h-21l-105 -21l-21 -21v-21l-21 -126l-21 -63v-252l-21 -42l-21 -42l-21 -42l-21 -42l-21 -42l-21 -42l-21 -21l-42 -63l-21 -21 h-147l-42 21l-42 21l-21 42l-42 63v42l-42 105l-21 126v294l21 42v42l-21 42l-21 21h-42l-42 -21l-21 -42l-21 -42z" />
<glyph unicode="&#x152;" horiz-adv-x="3675" d="M2226 1974l21 -672v126l21 -294l21 -21l21 -483v210l21 -336v105l21 -231l21 -21l21 -273h21v-21l21 -21l63 -21l63 21h21l21 -21l126 -21h63h147l273 21l84 21l42 21v21l21 42v21l-21 63l-21 42l-42 21h-84l-252 -21h-147l-105 21l-63 21l-21 84l-21 126l-21 126v231 h126h168l84 21l105 21h105h42l63 21l21 21v126l-21 42l-21 21l-63 21h-63l-147 -21l-63 -21l-84 -21h-189l-84 21l-21 21l-21 189l-21 105l-21 210v21l21 105l147 21l84 21h252h105h42l168 42l-42 -21l105 42l42 21l21 21l42 21v84l21 -21l-42 42l-63 42h-21l-105 -21 l-147 -21h-84l-147 21h-105l-126 -21l-84 -21h-84l-63 21h-84l-42 -21zM2562 882h-21h21zM210 1071l21 -336v126l21 -210v63l21 -105l21 -21l21 -84l42 -21v-42l42 -21l21 -42l42 -21l21 -42l42 -21l42 -21l21 -42l63 -21l21 -42l63 -21l42 -21l42 -21l42 -21l63 -21l84 -21 h231l126 21l63 21l42 21l21 21l42 42v21l21 42l42 42v21l21 42l21 42l42 42v21l21 42l21 42l21 42l21 63l21 84l21 84v441l-21 105l-21 63l-21 42l-21 42l-21 42l-21 42l-21 42l-21 42l-42 42l-21 42l-42 21l-21 42l-42 21l-42 21l-21 21l-84 21l-63 21l-21 21l-42 84v21 l-21 21l-21 42l-42 21l-63 21h-105l-84 -21l-42 -21l-42 -21l-42 -21l-42 -42l-21 -21l-42 -42l-21 -21l-42 -42l-21 -21l-42 -42l-21 -42l-21 -21l-21 -42l-21 -42l-21 -21l-21 -42l-21 -42l-21 -42l-21 -42l-21 -63l-21 -42l-21 -84l-21 -84zM1029 1911l42 -42l-42 -42 v-126l42 -21l21 -42l231 -21h-42l63 -21l21 -42l42 -21l21 -42l21 -42l42 -21v-42l21 -42l21 -42l21 -105v-357l-21 -84l-21 -84l-21 -42l-21 -42l-21 -42l-21 -21l-42 -84l-21 -42l-21 -42l-21 -21l-21 -42l-252 -21l-105 42l-42 21l-42 21l-42 21l-42 42l-42 21l-42 42 l-42 21l-21 42l-42 21l-21 42l-42 21l-21 42l-21 63l-21 84v336l21 84l21 84l21 42l21 63l21 42l21 42l21 42l42 42l21 63l42 42l21 21l21 42l42 42l21 21l63 42l21 21l105 21h21z" />
<glyph unicode="&#x2c6;" horiz-adv-x="1386" d="M210 1596l21 -63l21 -42l147 42l21 21l21 21l21 21l21 21v21l21 21l21 21l21 42l42 42l21 21l42 -21l21 -42l42 -21l21 -42l63 -21l21 -42l63 -21l42 -21l21 -42l63 -21l21 -21l105 42l21 21l21 21v21l-21 42v21l-21 21l-42 42l-42 21l-42 42l-42 21l-42 21l-42 42 l-42 21l-42 42l-42 42v42l-42 63l-21 42h-84l-42 -21l-42 -63l-21 -21l-42 -42l-21 -42l-21 -21l-42 -63l-21 -21l-42 -63l-21 -21l-42 -42l-21 -42z" />
<glyph unicode="&#x2000;" horiz-adv-x="1532" />
<glyph unicode="&#x2001;" horiz-adv-x="3064" />
<glyph unicode="&#x2002;" horiz-adv-x="1532" />
<glyph unicode="&#x2003;" horiz-adv-x="3064" />
<glyph unicode="&#x2004;" horiz-adv-x="1021" />
<glyph unicode="&#x2005;" horiz-adv-x="766" />
<glyph unicode="&#x2006;" horiz-adv-x="510" />
<glyph unicode="&#x2007;" horiz-adv-x="510" />
<glyph unicode="&#x2008;" horiz-adv-x="383" />
<glyph unicode="&#x2009;" horiz-adv-x="612" />
<glyph unicode="&#x200a;" horiz-adv-x="170" />
<glyph unicode="&#x2011;" d="M210 1113l21 -105h21v-21h21l84 -21l168 -21l42 -21h63l63 21l105 21l63 21l63 21l84 21l210 21l21 42v84l-21 42l-42 21h-42l-210 -21h21l-84 -21l-63 -21l-84 -21l-84 -21h-42h-42l-294 21z" />
<glyph unicode="&#x2014;" horiz-adv-x="2048" d="M204 512v204h1640v-204h-1640z" />
<glyph unicode="&#x202f;" horiz-adv-x="612" />
<glyph unicode="&#x2039;" horiz-adv-x="1428" d="M210 1050l21 -63l21 -168v21l21 -42l105 -21l42 -21l21 -42h42l21 -42l63 -21l21 -42l63 -21l42 -21l42 -21l42 -21l21 -42l84 -21l42 -21l42 -21l42 -21l21 -42h63h42l42 21l42 21v21v126l-21 42l-63 21l-42 21l-42 21l-63 21l-42 21l-42 21l-63 42l-42 21l-42 21 l-21 21l-42 21l-42 21l-21 21l-42 21l-42 42l-42 21l-42 42v42l42 42l21 21l42 42l21 21l42 42l21 21l42 42v21l42 42l21 21l42 42l21 21l42 42v21l42 42l21 21l42 42l21 21v105l-21 21l-147 -21l-21 -21l-21 -21l-21 -21l-21 -21l-21 -21v-21l-42 -42l-21 -21l-42 -42 l-21 -21l-42 -42l-21 -21l-42 -42l-21 -21l-42 -42l-21 -21l-21 -42l-21 -21l-42 -21l-42 -42l-21 -21l-21 -21z" />
<glyph unicode="&#x203a;" horiz-adv-x="1659" d="M210 1659l21 -168h21v-21h21l42 -21l21 -42h42l42 -21l63 -21l63 -21l42 -21l42 -21l21 -42l84 -21l21 -42h42l42 -21l42 -21l42 -21l42 -21l42 -21l42 -21l63 -21l42 -21l-42 -42h-21l-42 -42l-42 -21l-42 -42l-42 -21l-42 -42l-21 -21l-42 -21l-42 -42l-42 -21l-42 -21 l-42 -42l-42 -21l-42 -42l-21 -21l-42 -42l-21 -21l-42 -42h-63l-42 -42l-21 -42v-42l21 -63l21 -21l147 42l-21 -21l42 42l21 21l42 42l42 21l21 21l42 42l21 21l63 42l21 21l63 42l21 21l63 42l21 21l63 42l21 21l63 42l21 21l63 42l21 21l84 42l84 21l21 21l42 42v21v84 l-21 42l-21 42l-42 21l-42 21l-63 21l-42 21l-63 21l-42 21l-42 21l-42 21l-63 21l-42 21l-42 21l-63 42l-42 21l-21 21l-42 21l-42 21l-42 21l-63 21l-63 21l-63 21l-42 21l-63 21l-21 21l-21 21h-21l-42 -21z" />
<glyph unicode="&#x205f;" horiz-adv-x="766" />
<glyph unicode="&#x2122;" horiz-adv-x="4683" d="M2394 588l21 -441h21l84 21l63 42l21 168l21 189l21 210l21 294l21 567l42 -21v-42l42 -21l21 -42l42 -21v-42l42 -21l21 -42l21 -42l42 -21l21 -42l42 -21l21 -42l42 -21l21 -42l42 -21l21 -42l42 -21l21 -42l42 -21l21 -63l42 -21l21 -42l42 -21l21 -63l21 -42l63 -21 h105l42 21v21l21 42l21 63l21 63l42 42l21 42l21 42l21 42l21 42l42 42l21 42l21 42l42 42l21 63l42 42l21 21l21 42l42 42h21l21 -525v210l21 -420l21 -21v-630l21 378l-21 -441l21 -21l21 -42l63 -21h63l42 21l21 21l21 42l21 63v357l-21 189l-21 231l-21 210l-21 378 l-21 378l-21 63l-21 42l-21 42h-126l-42 -21l-42 -63l-21 -42l-21 -42l-21 -21l-21 -42l-21 -21l-42 -42l-21 -21l-42 -42l-21 -42l-21 -21l-42 -42l-21 -42l-21 -21l-21 -42l-21 -21l-21 -42l-21 -42l-21 -21l-42 -63l-21 -42l-21 -42l-21 -21l-42 -63l-21 42l-42 21 l-21 42l-42 21l-21 42l-42 21l-21 42l-42 21l-21 42l-42 21l-21 42l-42 42l-21 42l-42 21l-21 42l-21 42l-42 21l-21 42l-42 42l-21 42l-42 21l-21 42l-42 42l-21 42l-42 42l-21 42l-42 21l-21 21l-126 -21l-21 -21l-21 -21v-21l-42 -168v-21l-42 -1218l21 294zM210 2058 l21 -126h21v-21h294l126 -21l168 -21l147 -21v-399l21 -126l21 -168v-336v-336l21 -483h21v-21h63h21l63 21v21l21 42l21 819v126l-21 273l-21 105l-21 105v357h273l84 -21l63 -21h252l63 21l21 21l21 42v84l-21 42l-42 21h-147h-42l-63 21l-105 21l-525 21h-63h-84h-63 l-336 42l105 -21l-168 21l-42 -21l-126 -21z" />
</font>
</defs>
</svg>
